<?xml version="1.0" encoding="UTF-8" standalone="no"?>
<svg
   version="1.1"
   viewBox="-5.0 -10.0 110.0 135.0"
   id="svg2"
   sodipodi:docname="politics.svg"
   inkscape:version="1.4.2 (ebf0e940, 2025-05-08)"
   xmlns:inkscape="http://www.inkscape.org/namespaces/inkscape"
   xmlns:sodipodi="http://sodipodi.sourceforge.net/DTD/sodipodi-0.dtd"
   xmlns="http://www.w3.org/2000/svg"
   xmlns:svg="http://www.w3.org/2000/svg">
  <defs
     id="defs2" />
  <sodipodi:namedview
     id="namedview2"
     pagecolor="#ffffff"
     bordercolor="#000000"
     borderopacity="0.25"
     inkscape:showpageshadow="2"
     inkscape:pageopacity="0.0"
     inkscape:pagecheckerboard="0"
     inkscape:deskcolor="#d1d1d1"
     inkscape:zoom="3.0292067"
     inkscape:cx="38.789033"
     inkscape:cy="68.664842"
     inkscape:window-width="1712"
     inkscape:window-height="1069"
     inkscape:window-x="0"
     inkscape:window-y="38"
     inkscape:window-maximized="0"
     inkscape:current-layer="svg2" />
  <path
     d="m 49.889756,50.828803 c 5.664469,0 10.275999,-4.454797 10.275999,-9.926748 0,-5.476235 -4.61153,-9.926748 -10.275999,-9.926748 -5.668904,0 -10.275998,4.454798 -10.275998,9.926748 0,5.471951 4.611529,9.926748 10.275998,9.926748 z m 0,-17.17998 c 4.140562,0 7.508194,3.253067 7.508194,7.253013 0,3.999836 -3.367519,7.253012 -7.508194,7.253012 -4.140561,0 -7.508194,-3.253066 -7.508194,-7.253012 0,-3.999836 3.367519,-7.253013 7.508194,-7.253013 z m 33.040556,12.278791 c 2.301273,-2.167356 2.350178,-5.738049 0.106625,-7.961108 -2.24361,-2.223059 -5.93993,-2.270302 -8.241203,-0.103001 L 61.79151,50.103843 c -1.528343,1.437726 -3.305306,2.137252 -5.437799,2.137252 l -12.377556,-0.0043 c -2.132492,0 -3.914005,-0.699548 -5.437799,-2.137252 L 25.538681,37.863615 c -1.11067,-1.04718 -2.576734,-1.613734 -4.144997,-1.5922 -1.559392,0.02146 -3.016539,0.622301 -4.100641,1.695256 -2.24361,2.223058 -2.194705,5.793752 0.106624,7.961108 l 18.370145,17.299736 0.182154,4.012691 c -5.14016,0.03433 -9.307448,4.081357 -9.307448,9.051214 0,4.99128 4.202773,9.051215 9.36966,9.051215 5.166888,0 9.369661,-4.059935 9.369661,-9.051215 0,-4.077073 -2.803289,-7.531967 -6.646325,-8.660635 l -0.226579,-5.042699 c 0,-0.02575 -0.0044,-0.04721 -0.0044,-0.07296 -0.01333,-0.158791 -0.05775,-0.304706 -0.124401,-0.442041 -0.05331,-0.107296 -0.119954,-0.210297 -0.204367,-0.300421 -0.02666,-0.03004 -0.05775,-0.06437 -0.0933,-0.09442 L 19.336699,44.00935 c -1.208413,-1.137348 -1.230591,-3.012787 -0.05331,-4.180129 0.564218,-0.562214 1.328401,-0.875512 2.150235,-0.888377 h 0.03999 c 0.804126,0 1.559393,0.296125 2.132493,0.832587 l 12.999676,12.244732 c 2.039232,1.922681 4.522704,2.896876 7.370463,2.896876 h 12.377556 c 2.852195,0 5.331231,-0.974217 7.370463,-2.896876 L 76.72394,39.777825 c 1.208412,-1.137348 3.149834,-1.111529 4.327197,0.05579 1.177363,1.167321 1.150636,3.04278 -0.05775,4.180129 l -19.78726,18.634627 c -0.137719,0.128753 -0.239909,0.278964 -0.310992,0.437756 -0.05331,0.124458 -0.08886,0.261792 -0.102177,0.403422 v 0.0043 0.0043 c -0.0044,0.02146 -0.0044,0.04291 -0.0044,0.06437 l -0.155496,4.141455 c -3.722934,1.197336 -6.410784,4.596417 -6.410784,8.587683 0,4.991281 4.202773,9.051211 9.369661,9.051211 5.166887,0 9.36966,-4.05993 9.36966,-9.051211 0,-4.99128 -4.202773,-9.051214 -9.36966,-9.051214 -0.05775,0 -0.115508,0.0043 -0.168826,0.0043 l 0.115508,-3.05135 z M 42.622221,76.2873 c 0,3.514881 -2.963311,6.377478 -6.601856,6.377478 -3.638544,0 -6.601855,-2.862597 -6.601855,-6.377478 0,-3.514881 2.963311,-6.377479 6.601855,-6.377479 3.638545,0 6.601856,2.862598 6.601856,6.377479 z m 27.571139,0 c 0,3.514881 -2.963311,6.377478 -6.601855,6.377478 -3.638545,0 -6.601856,-2.862597 -6.601856,-6.377478 0,-3.514881 2.963311,-6.377479 6.601856,-6.377479 3.638544,0 6.601855,2.862598 6.601855,6.377479 z M 8.448885,85.342804 c 5.166888,0 9.369661,-4.059939 9.369661,-9.05122 0,-4.99128 -4.202773,-9.051214 -9.369661,-9.051214 -5.1668875,0 -9.36966076,4.059934 -9.36966076,9.051214 -0.004447,4.986996 4.19833776,9.05122 9.36966076,9.05122 z m 0,-15.433093 c 3.638544,0 6.601856,2.862598 6.601856,6.377479 0,3.514881 -2.963312,6.377478 -6.601856,6.377478 -3.6385442,0 -6.601856,-2.862597 -6.601856,-6.377478 -0.00445,-3.514881 2.9588762,-6.377479 6.601856,-6.377479 z M 8.8087474,85.80205 c -6.5929848,0 -11.9556066,5.180033 -11.9556066,11.549273 v 10.690647 c 0,0.73817 0.6175357,1.33907 1.3861771,1.33907 H 19.377722 c 0.764138,0 1.386177,-0.59655 1.386177,-1.33907 V 97.351323 c 0,-6.36891 -5.36228,-11.549273 -11.9556066,-11.549273 z m 9.1830256,20.90009 H -0.37837201 v -9.351587 c 0,-4.89251 4.11838351,-8.87092 9.18302501,-8.87092 5.064642,0 9.183025,3.97841 9.183025,8.87092 z M 36.380114,85.80205 c -6.592985,0 -11.955606,5.180033 -11.955606,11.549273 v 10.690647 c 0,0.73817 0.617535,1.33907 1.386177,1.33907 h 21.138404 c 0.764149,0 1.386177,-0.59655 1.386177,-1.33907 V 97.351323 c 0,-6.36891 -5.362281,-11.549273 -11.955607,-11.549273 z m 9.187461,20.90009 H 27.19743 v -9.351587 c 0,-4.89251 4.118384,-8.87092 9.183025,-8.87092 5.064642,0 9.183025,3.97841 9.183025,8.87092 z M 63.951367,85.80205 c -6.592985,0 -11.955607,5.180033 -11.955607,11.549273 v 10.690647 c 0,0.73817 0.617536,1.33907 1.386177,1.33907 h 21.138405 c 0.764148,0 1.386177,-0.59655 1.386177,-1.33907 V 97.351323 c 0,-6.36891 -5.362281,-11.549273 -11.955607,-11.549273 z m 9.18746,20.90009 H 54.764134 v -9.351587 c 0,-4.89251 4.118383,-8.87092 9.183025,-8.87092 5.064641,0 9.183025,3.97841 9.183025,8.87092 l 0.0044,9.351587 z m 8.649959,-30.415719 c 0,4.99128 4.202773,9.051219 9.369661,9.051219 5.166887,0 9.369663,-4.059939 9.369663,-9.051219 0,-4.991281 -4.202776,-9.051214 -9.369663,-9.051214 -5.162452,0 -9.369661,4.059933 -9.369661,9.051214 z m 15.976066,0 c 0,3.514881 -2.963312,6.377478 -6.601856,6.377478 -3.638544,0 -6.601856,-2.862597 -6.601856,-6.377478 0,-3.514881 2.963312,-6.377479 6.601856,-6.377479 3.638544,0 6.601856,2.862598 6.601856,6.377479 z m -6.242005,9.51475 c -6.592985,0 -11.955606,5.180032 -11.955606,11.549272 V 108.0411 c 0,0.73816 0.617535,1.33906 1.386177,1.33906 h 21.138402 c 0.76415,0 1.38618,-0.59655 1.38618,-1.33906 V 97.350443 c 0,-6.36891 -5.362282,-11.549272 -11.955608,-11.549272 z m 9.187463,20.900089 H 82.340163 v -9.351587 c 0,-4.89251 4.118384,-8.87092 9.183025,-8.87092 5.064642,0 9.183022,3.97841 9.183022,8.87092 z M 62.916852,30.553196 h 2.01694 v 6.514813 c 0,0.497832 0.288779,0.957045 0.746372,1.188767 0.19992,0.0987 0.417616,0.15021 0.639748,0.15021 0.279886,0 0.559782,-0.08154 0.795244,-0.24463 l 11.20895,-7.609204 h 13.407976 c 2.661123,0 4.829214,-2.094294 4.829214,-4.665083 l 0.0044,-14.7596 c 0,-2.5706787 -2.167978,-4.6650837 -4.829215,-4.6650837 h -28.81989 c -2.661124,0 -4.829215,2.094295 -4.829215,4.6650837 v 14.755205 c 0,2.575074 2.167978,4.669369 4.829215,4.669369 z M 60.855443,11.128623 c 0,-1.098675 0.92408,-1.9913477 2.061409,-1.9913477 h 28.819927 c 1.137329,0 2.061409,0.8926727 2.061409,1.9913477 v 14.755205 c 0,1.098675 -0.92408,1.991348 -2.061409,1.991348 h -13.848123 -0.01333 c -0.03109,0 -0.0622,0.0043 -0.09329,0.0043 -0.01333,0 -0.0311,0 -0.04442,0.0043 -0.03109,0.0043 -0.05775,0.0086 -0.08886,0.01288 -0.01776,0.0043 -0.03109,0.0043 -0.04887,0.0086 -0.02666,0.0043 -0.04887,0.01288 -0.07553,0.01716 -0.01778,0.0043 -0.03999,0.0086 -0.05775,0.01288 -0.01778,0.0043 -0.03999,0.01288 -0.05775,0.02146 -0.02221,0.0086 -0.04887,0.01717 -0.07108,0.02575 -0.01333,0.0043 -0.03109,0.01288 -0.04442,0.02146 -0.02666,0.01288 -0.05331,0.02575 -0.07997,0.03863 -0.01333,0.0086 -0.02666,0.01288 -0.03999,0.02146 -0.02666,0.01288 -0.05331,0.03004 -0.07997,0.04721 -0.0044,0.0043 -0.0044,0.0043 -0.0089,0.0043 l -9.387403,6.373194 v -5.278804 c 0,-0.738177 -0.617536,-1.339065 -1.386178,-1.339065 h -3.403117 c -1.137329,0 -2.061409,-0.892673 -2.061409,-1.991348 z m 5.904331,3.459068 c 0,-0.738177 0.617536,-1.339065 1.386177,-1.339065 h 18.365595 c 0.764149,0 1.386178,0.596548 1.386178,1.339065 0,0.738178 -0.617536,1.339065 -1.386178,1.339065 H 68.141402 c -0.764149,-0.0043 -1.381628,-0.600843 -1.381628,-1.339065 z m 0,7.840914 c 0,-0.738167 0.617536,-1.339065 1.386177,-1.339065 h 18.365595 c 0.764149,0 1.386178,0.596547 1.386178,1.339065 0,0.738178 -0.617536,1.339065 -1.386178,1.339065 H 68.141402 c -0.764149,0 -1.381628,-0.600832 -1.381628,-1.339065 z M 8.5956118,30.552757 H 22.003588 l 11.20895,7.609203 c 0.239908,0.163087 0.515347,0.244631 0.795243,0.244631 0.217697,0 0.435382,-0.0515 0.639748,-0.150211 0.457593,-0.231754 0.746373,-0.686672 0.746373,-1.188766 v -6.514813 h 2.01694 c 2.661123,0 4.829214,-2.094294 4.829214,-4.665084 l 0.0044,-14.759599 c 0,-2.5706797 -2.167978,-4.6650837 -4.829215,-4.6650837 H 8.5953571 c -2.6611233,0 -4.8292144,2.094294 -4.8292144,4.6650837 v 14.755204 c 0,2.575075 2.1635417,4.669369 4.8292144,4.669369 z M 6.5342023,11.128184 c 0,-1.098675 0.9240801,-1.9913487 2.0614095,-1.9913487 H 37.415539 c 1.137329,0 2.061409,0.8926737 2.061409,1.9913487 v 14.755204 c 0,1.098675 -0.92408,1.991349 -2.061409,1.991349 h -3.403117 c -0.764149,0 -1.386177,0.596547 -1.386177,1.339065 v 5.278803 l -9.387403,-6.373193 c -0.0044,-0.0043 -0.0044,-0.0043 -0.0089,-0.0043 -0.02666,-0.01717 -0.05331,-0.03004 -0.07997,-0.04721 -0.01333,-0.0086 -0.02666,-0.01717 -0.03999,-0.02146 -0.02666,-0.01288 -0.05332,-0.02575 -0.07997,-0.03863 -0.01333,-0.0086 -0.0311,-0.01288 -0.04442,-0.02146 -0.02221,-0.0086 -0.04887,-0.01717 -0.07108,-0.02575 -0.01777,-0.0086 -0.03999,-0.01288 -0.05775,-0.02146 -0.01778,-0.0043 -0.03999,-0.0086 -0.05775,-0.01288 -0.02666,-0.0086 -0.04887,-0.01288 -0.07553,-0.01717 -0.01333,-0.0043 -0.03109,-0.0043 -0.04887,-0.0086 -0.03109,-0.0043 -0.05775,-0.0086 -0.08886,-0.01288 -0.01333,0 -0.0311,-0.0043 -0.04442,-0.0043 -0.0311,-0.0043 -0.0622,-0.0043 -0.0933,-0.0043 h -0.01333 l -13.8390242,-0.0043 c -1.1373294,0 -2.0614095,-0.892674 -2.0614095,-1.991349 z m 5.9043317,3.459068 c 0,-0.738178 0.617536,-1.339065 1.386177,-1.339065 h 9.183025 c 0.764149,0 1.386177,0.596547 1.386177,1.339065 0,0.738178 -0.617535,1.339065 -1.386177,1.339065 h -9.183025 c -0.768584,-0.0043 -1.386177,-0.600843 -1.386177,-1.339065 z m 0,7.840913 c 0,-0.738166 0.617536,-1.339065 1.386177,-1.339065 h 18.365595 c 0.764149,0 1.386177,0.596548 1.386177,1.339065 0,0.738178 -0.617535,1.339065 -1.386177,1.339065 H 13.820162 c -0.764149,0 -1.381628,-0.600832 -1.381628,-1.339065 z"
     id="path1"
     style="stroke-width:1.11784" />
</svg>
