<svg width="800" height="600" xmlns="http://www.w3.org/2000/svg" xmlns:xlink="http://www.w3.org/1999/xlink" version="1.1" baseProfile="full" viewBox="0 0 800 600">
<rect width="800" height="600" x="0" y="0" fill="none"></rect>
<path d="M572.7456 60L571.5437 61.4931L571.1165 61.8677L570.6934 61.9581L569.8591 61.9065L569.5612 62.312L569.4888 62.8442L569.7562 63.7147L569.9085 64.77L570.1163 65.226L570.1868 65.9364L569.6198 67.5806L569.4159 67.9733L568.4317 69.2985L568.0599 69.5736L567.561 69.6743L566.8962 70.1522L566.1772 70.306L565.1741 70.1807L564.4542 70.3873L564.8781 70.9551L565.3084 71.7331L565.0669 72.0633L565.1309 72.582L564.8689 74.1187L565.0028 74.6109L564.8113 75.8314L565.2578 78.3071L565.2225 78.9374L565.5535 80.0256L565.6199 80.8067L566.1701 80.6105L567.0795 80.0041L567.5341 79.5081L568.0301 79.233L569.0635 78.9572L569.5181 78.6814L570.138 78.5161L571.3366 78.5161L572.2874 79.0121L573.1966 79.0676L574.3125 79.5081L574.7259 79.7839L575.7179 79.9492L576.2553 79.7839L576.7925 79.2879L577.6241 77.9949L577.9787 77.2807L577.9518 76.8764L577.4316 75.4801L577.4941 74.948L577.2095 74.2828L577.1252 73.6705L577.2044 72.1438L576.7973 71.1506L576.7835 70.2658L576.5861 69.0943L576.2032 68.5014L576.0698 67.9189L576.6905 67.2046L576.7555 66.6547L576.2066 66.5511L575.3258 66.0783L575.0705 65.7167L574.6923 65.8691L574.4629 65.1057L574.3939 63.7392L574.158 63.1592L573.0672 61.8224L572.7829 60.9815L572.7456 60Z" fill="rgb(200,0,0)" fill-opacity="0" stroke="#666" stroke-width="0.5" class="zr0-cls-0"></path>
<path d="M577.6241 77.9949L576.7925 79.2879L576.2553 79.7839L575.7179 79.9492L574.7259 79.7839L574.3125 79.5081L573.1966 79.0676L572.2874 79.0121L571.3366 78.5161L570.138 78.5161L569.5181 78.6814L569.0635 78.9572L568.0301 79.233L567.5341 79.5081L567.0795 80.0041L566.1701 80.6105L565.6199 80.8067L565.4566 82.4248L565.8987 83.329L566.0325 83.7978L566.2831 85.3417L566.144 86.1165L566.4277 86.5293L566.7366 87.6544L566.6672 88.8921L566.8708 89.2746L566.8006 89.7871L566.9982 91.1601L566.8907 91.5537L566.9982 92.0633L566.7366 92.881L566.8006 93.3935L566.6496 93.9214L566.9284 94.495L566.7877 95.2903L566.3529 95.7449L566.5914 96.7606L566.4994 97.3071L566.2248 97.7607L566.3334 99.2171L566.2263 100.4009L566.4332 101.5158L566.7102 101.8613L566.959 102.8494L566.5764 103.6208L566.6126 104.1644L566.9605 104.7731L566.9284 105.2074L567.403 106.5742L567.51 107.4805L567.2717 107.9758L567.5786 109.2614L568.9664 109.2983L569.2257 108.8191L569.9029 108.5259L571.7837 108.5724L572.7846 109.215L573.3089 109.2363L574.2939 108.8715L576.3887 107.873L579.4543 106.6686L579.8362 106.3011L580.3109 105.3866L580.7749 104.9158L581.56 104.5735L581.7821 103.9729L581.9174 102.7546L581.5387 102.0632L581.531 100.4448L581.7426 99.8972L582.3854 99.1971L582.1175 98.683L580.4741 97.62L580.0605 97.1499L579.7255 96.4253L579.6916 96.0416L580.0091 95.5043L580.54 95.268L580.0624 94.0189L580.0924 93.0476L579.5 92.7338L579.6306 92.2817L580.7802 91.8387L581.3852 91.8555L581.8235 90.166L581.7116 89.3846L581.0989 88.8292L580.3535 87.9909L580.4295 87.3541L580.9856 86.6863L581.494 85.7197L582.1175 84.5577L582.7041 84.0953L582.2769 83.3746L581.2752 82.4549L580.6824 82.083L580.353 81.3583L579.2569 80.0796L578.5129 79.6198L578.2794 79.3356L577.8857 78.2817L577.6241 77.9949Z" fill="rgb(58,58,58)" fill-opacity="0.3763440860215054" stroke="#666" stroke-width="0.5" class="zr0-cls-0"></path>
<path d="M581.9174 102.7546L581.7821 103.9729L581.56 104.5735L580.7749 104.9158L580.3109 105.3866L579.8362 106.3011L579.4543 106.6686L576.3887 107.873L574.2939 108.8715L573.3089 109.2363L572.7846 109.215L571.7837 108.5724L569.9029 108.5259L569.2257 108.8191L568.9664 109.2983L567.5786 109.2614L567.3765 109.6986L567.4843 110.1889L567.1823 111.2654L566.843 111.5647L566.7293 111.9666L566.7473 114.4309L566.3529 114.7106L566.5451 115.3066L566.2781 116.225L566.3723 116.9023L566.155 117.1922L565.9463 119.8812L565.8273 120.2494L565.7709 121.8624L565.8746 122.3607L565.5428 123.1133L565.626 123.8985L565.4566 124.049L565.5188 124.8443L565.224 126.0363L565.4566 127.0045L565.3697 127.6249L565.084 128.1131L564.9936 128.6857L564.6589 129.2887L563.9288 129.8661L563.6136 129.7281L563.4093 128.7782L562.8838 129.4006L562.711 130.0067L562.8564 130.29L562.8318 131.1552L562.5288 131.7051L562.6092 132.7304L562.4865 133.118L562.6698 133.9468L562.3998 134.2417L562.4753 135.0347L563.0987 135.3049L563.4955 134.5201L564.2819 135.0422L564.4913 135.8629L564.3552 136.7864L564.0371 137.5766L563.6172 138.0882L563.481 138.4584L563.5192 139.1204L563.3426 139.3889L563.4616 140.0592L563.2202 141.1037L563.3884 141.6213L563.4643 142.3678L563.284 142.6977L563.4101 143.2421L563.1805 144.2087L563.159 144.9711L562.9639 145.7098L563.0743 146.3395L562.6908 147.7093L562.9536 148.7223L562.7511 149.3142L562.7511 150.2946L562.9433 150.7218L562.9433 151.2832L563.2705 152.6358L563.7228 153.3386L563.4936 154.9506L563.9444 155.5588L564.0577 156.0653L563.9845 157.958L563.7961 158.4268L563.3392 158.4756L563.1775 159.3564L562.671 159.8161L562.3155 159.9483L562.0478 160.406L562.204 161.4647L561.8418 161.8196L561.6634 162.2875L561.5897 163.3127L561.3677 163.3794L561.2178 164.0119L561.4955 164.0876L561.6237 164.7101L562.0714 165.4403L562.2053 166.5027L562.9855 165.166L564.4167 163.9338L565.1326 163.8544L565.6097 163.9732L566.7727 162.8598L567.6375 162.6616L568.0253 163.1382L569.248 162.9793L570.8583 161.906L572.2005 161.7464L573.3932 162.1443L576.7813 161.7652L576.9351 161.0412L577.5282 159.8406L577.5689 159.3647L577.3611 158.6827L577.5248 158.4308L579.0678 158.2855L579.5289 158.4134L580.1823 158.3895L580.6446 158.1344L581.3527 157.4156L581.7049 157.2867L582.0628 155.9418L582.2463 155.6471L582.4566 155.4652L582.956 155.5066L583.3454 155.3567L583.4563 154.9395L582.7424 153.9114L582.7772 153.2423L582.5031 152.8574L582.4072 152.3924L582.1175 152.342L581.6961 151.9249L581.4821 151.2571L581.5349 150.7714L582.0134 149.5896L582.1786 148.803L582.7971 148.3948L583.1725 147.4054L583.9562 147.2401L584.6081 145.9665L586.8038 144.8377L591.49 142.2802L592.4083 141.8449L592.8762 141.5298L593.0879 141.1578L593.917 137.8146L595.2656 132.374L596.0895 129.0519L596.1418 128.6619L594.4552 126.4312L591.1446 127.3095L590.4917 127.3689L589.042 127.2617L588.7407 127.1365L588.4646 126.6547L588.0587 126.5733L587.9168 126.0644L587.9183 125.0995L588.2239 123.2396L587.9338 122.2941L587.8539 121.6728L587.4126 120.5827L587.3477 120.0815L587.5109 119.3014L587.4155 118.7589L587.1525 118.2875L587.3012 117.7127L586.9917 116.8757L586.1242 115.9096L585.9978 115.5802L585.8912 113.5265L585.6965 112.5604L585.1133 111.2364L585.0397 110.805L585.0838 107.7632L584.9545 107.2117L582.9976 103.156L582.645 102.9054L581.9174 102.7546Z" fill="rgb(0,0,0)" fill-opacity="0" stroke="#666" stroke-width="0.5" class="zr0-cls-0"></path>
<path d="M581.7049 157.2867L581.3527 157.4156L580.6446 158.1344L580.1823 158.3895L579.5289 158.4134L579.0678 158.2855L577.5248 158.4308L577.3611 158.6827L577.5689 159.3647L577.5282 159.8406L576.9351 161.0412L576.7813 161.7652L573.3932 162.1443L572.2005 161.7464L570.8583 161.906L569.248 162.9793L568.0253 163.1382L567.6375 162.6616L566.7727 162.8598L565.6097 163.9732L565.1326 163.8544L564.4167 163.9338L562.9855 165.166L562.2053 166.5027L561.9707 167.0513L561.8556 168.1548L562.0775 169.0914L561.7665 169.9503L562.1324 170.0857L561.9053 170.9598L561.5993 171.0564L561.7179 171.8496L561.5302 172.3043L561.6634 172.948L561.3083 174.6658L561.0661 175.0635L561.2883 175.5089L560.7862 175.993L560.4452 176.9653L560.4421 177.2298L560.7617 178.5956L560.1984 179.2425L559.9913 180.1151L559.7137 180.2982L559.3308 180.0592L559.1561 180.6592L559.2968 181.3284L559.2034 181.6864L559.4116 182.3668L559.2888 183.2893L559.5554 183.8303L559.7961 184.8046L559.544 185.4393L559.6016 186.4136L559.2259 186.9038L558.4181 186.9709L558.3243 187.6788L558.0425 188.3988L557.8701 189.5644L557.6149 189.9061L557.4864 190.4644L557.3998 191.751L557.1584 192.3012L557.3083 192.9246L557.1664 194.4858L556.9662 194.8184L557.1664 195.2191L557.1504 195.6462L556.809 196.7223L556.2511 197.2135L556.2492 197.8939L555.8506 198.4309L556.0844 198.8743L555.9513 199.574L555.4269 200.1842L555.1126 201.1311L554.2087 201.7017L553.8884 202.8885L554.211 204.0815L554.0836 204.5087L554.2621 204.8046L554.1447 205.4159L554.2149 206.2781L555.1032 205.9423L555.6188 206.0411L556.3044 206.5132L556.9125 207.8294L557.6148 207.8023L558.0825 208.4623L558.5736 208.1529L558.7744 207.5278L559.0178 206.2194L559.5547 205.9442L560.7136 205.6607L561.2284 205.1938L561.319 204.7146L561.8479 204.5247L562.48 204.7798L562.7752 205.1008L562.985 205.8538L563.7454 209.5724L564.1845 210.5612L564.7875 211.0539L565.1658 211.8509L565.5824 212.272L566.3707 212.467L567.3181 212.972L568.1216 212.9836L568.8159 212.6084L568.405 211.9613L568.4493 210.9267L567.9705 208.6909L567.7542 208.1742L567.862 207.1009L568.3905 206.6462L568.2938 206.2407L568.885 205.7369L568.9884 205.4269L569.6125 205.2526L569.9915 204.8702L570.068 204.2632L569.9663 203.1356L570.0746 202.6473L570.6297 201.2924L570.6246 200.7925L570.4415 199.984L570.5827 199.1457L571.2015 198.177L571.2247 196.8595L571.3963 196.1509L572.3385 195.1119L572.7456 194.4829L572.9292 193.6188L573.5872 193.7971L574.0854 192.7689L574.6845 191.1337L575.5031 190.7462L575.9051 190.1908L576.2702 188.2945L576.4188 187.667L576.8159 187.3428L576.653 186.8468L577.2589 185.5319L577.4316 184.2519L578.1693 183.5815L578.6229 182.3286L578.6541 181.4103L579.1293 180.3421L579.3911 180.0515L580.1641 179.9753L580.8122 180.532L581.4084 180.6766L581.6753 179.9843L582.0444 179.6033L582.7467 179.4754L583.3628 179.1977L583.8022 179.2042L583.8646 178.4046L584.0681 177.7252L583.899 177.0187L581.5557 173.0263L581.3198 171.8599L581.3329 170.877L581.5087 169.938L581.7809 169.5079L582.9642 168.3854L583.0659 167.9476L582.9904 167.3147L582.3408 164.1024L582.2275 163.082L582.0081 162.4659L581.6569 161.9337L581.6976 160.8035L581.2486 160.0299L581.22 159.1089L581.7049 157.2867Z" fill="rgb(5,5,5)" fill-opacity="0.03225806451612903" stroke="#666" stroke-width="0.5" class="zr0-cls-0"></path>
<path d="M568.8159 212.6084L568.1216 212.9836L567.3181 212.972L566.3707 212.467L565.5824 212.272L565.1658 211.8509L564.7875 211.0539L564.1845 210.5612L563.7454 209.5724L562.985 205.8538L562.7752 205.1008L562.48 204.7798L561.8479 204.5247L561.319 204.7146L561.2284 205.1938L560.7136 205.6607L559.5547 205.9442L559.0178 206.2194L558.7744 207.5278L558.5736 208.1529L558.0825 208.4623L557.6148 207.8023L556.9125 207.8294L556.3044 206.5132L555.6188 206.0411L555.1032 205.9423L554.2149 206.2781L555.2556 207.1662L555.5268 207.5964L555.6309 208.3988L555.901 208.9002L555.6309 210.198L555.7499 210.7329L556.0806 211.1743L555.7526 211.8344L555.6321 212.7365L555.7427 213.4759L556.1367 214.2702L556.0943 215.0126L555.7846 215.4255L554.9147 216.0317L555.1965 216.71L555.195 217.9803L554.8037 218.4431L554.6012 218.1634L553.9296 219.6157L553.51 219.7245L552.7892 219.2862L552.4368 220.4151L552.3495 221.7555L552.187 222.4898L552.2675 222.9434L552.0936 223.8191L552.2293 224.9938L552.1515 225.8756L552.4269 227.6198L552.642 228.3317L552.6626 229.4931L552.5211 230.5122L552.7152 231.157L553.0775 233.8827L553.4433 235.1204L553.4345 236.0245L553.954 238.323L553.7229 239.1001L554.0836 239.752L553.8327 240.0866L554.0219 240.8473L553.6833 243.5412L554.4716 242.0312L554.8038 241.6063L555.055 241.8853L555.6033 242.119L556.8675 241.1936L557.4826 240.9921L558.3549 241.512L558.7383 241.4267L559.1568 240.8029L560.3263 241.3331L560.9187 241.2827L561.3936 241.51L562.1037 242.2876L563.3683 242.9102L563.8224 243.6961L564.578 243.8828L565.0529 243.7482L564.9152 243.3125L565.0115 242.8785L564.5487 241.9033L564.6546 241.5087L565.2477 241.7251L565.5722 241.6011L565.8882 240.6472L565.5761 239.9665L565.2169 239.6552L564.1394 239.5054L563.8033 239.1076L563.6173 238.6L563.5955 237.7694L563.2121 237.183L562.7149 236.0335L562.6108 235.5L562.7607 233.7925L562.9549 233.1674L562.8208 232.4337L563.0286 231.9377L563.1305 230.7882L563.6565 229.8401L563.9537 229.8517L564.0707 230.3981L564.5836 230.1514L564.9689 229.153L565.5451 229.1245L564.9742 227.8587L565.1593 226.1422L565.5652 225.2018L565.6211 224.3481L565.9473 223.5279L566.1188 222.5721L566.7366 221.8798L566.7598 221.367L566.5249 220.911L566.7766 220.5571L567.8707 221.097L568.4856 220.818L569.0647 220.0418L569.2199 218.8961L569.5694 218.6223L569.6931 218.1573L569.5621 217.7168L568.916 217.2312L568.4045 217.2518L568.3822 216.8669L568.7041 216.2973L568.8831 215.379L568.9448 213.705L568.8159 212.6084Z" fill="rgb(0,0,0)" fill-opacity="0" stroke="#666" stroke-width="0.5" class="zr0-cls-0"></path>
<path d="M567.1592 254.2835L566.7385 254.3521L565.323 255.7677L564.3502 254.7008L563.551 254.5058L562.3778 253.2968L561.8128 253.7922L561.1928 253.1018L560.6729 253.1315L559.5465 253.437L558.2806 254.1816L558.1658 254.3502L554.6162 257.8363L554.4549 258.4388L554.5517 259.0414L555.3434 260.0334L555.4083 261.4929L555.3391 262.0464L554.8351 262.7471L555.0252 263.5879L554.7544 263.812L553.909 264.0788L553.1822 265.0436L552.0515 265.763L552.9335 266.622L553.5506 266.3914L554.4268 266.7111L555.4405 267.4247L555.9857 267.2097L557.0714 268.1829L557.5601 268.3973L558.1542 268.4451L558.8967 268.2888L559.2576 268.0111L559.6378 267.3498L560.5147 266.4657L560.5469 265.5932L561.0175 265.5842L561.775 265.3084L562.6568 265.2987L563.8796 264.8589L564.2792 265.0694L564.7035 265.7153L565.0617 266.6756L565.4477 267.0069L566.2372 267.0166L566.5044 267.3414L566.7819 268.314L567.3123 268.7364L567.7022 269.666L568.2546 269.4862L568.9826 269.6799L569.0695 269.481L569.7212 269.1633L569.6786 268.7396L569.3417 267.8729L569.4287 267.4674L569.5052 265.9329L569.4134 265.5945L569.0015 265.5699L569.1165 264.516L568.9526 263.5434L569.0301 263.1275L569.4655 262.7038L569.1344 261.903L569.3447 260.9498L569.2894 260.5997L569.6396 260.2846L569.7387 259.352L570.0802 258.8082L570.1438 258.3678L569.898 257.2441L569.683 256.947L569.0414 256.6034L568.7109 256.6615L568.305 257.3061L568.0599 257.3642L567.6683 256.442L567.2086 255.9615L567.1248 255.4939L567.2897 254.7732L567.1592 254.2835Z" fill="rgba(25, 234, 234, 1)" fill-opacity="0.7419354838709677" stroke="#666" stroke-width="0.5" class="zr0-cls-0"></path>
<path d="M565.7531 245.0565L565.1375 244.63L565.0529 243.7482L564.578 243.8828L563.8224 243.6961L563.3683 242.9102L562.1037 242.2876L561.3936 241.51L560.9187 241.2827L560.3263 241.3331L559.1568 240.8029L558.7383 241.4267L558.3549 241.512L557.4826 240.9921L556.8675 241.1936L555.6033 242.119L555.055 241.8853L554.8038 241.6063L554.4716 242.0312L553.6833 243.5412L553.8083 243.9615L554.3171 244.5971L554.4292 245.3172L554.9147 245.7474L554.6595 247.1906L554.3125 247.8181L554.5184 248.29L554.6012 249.1616L554.4177 249.8705L554.031 250.0128L554.0836 250.7115L553.645 251.0706L553.9227 252.0408L553.6389 252.651L553.4547 253.6498L553.2171 253.8694L552.7282 253.8633L552.3102 254.6963L551.6397 254.9007L552.0291 255.7204L552.1515 256.709L552.4437 257.3874L552.4803 258.1074L552.1515 258.499L552.1641 259.0543L552.7747 259.8822L552.9258 260.3927L552.7198 260.8626L552.6473 261.8308L552.3354 262.6353L551.7167 263.1356L551.2065 263.336L550.9513 263.9544L550.6145 265.2838L551.4722 265.3743L552.0515 265.763L553.1822 265.0436L553.909 264.0788L554.7544 263.812L555.0252 263.5879L554.8351 262.7471L555.3391 262.0464L555.4083 261.4929L555.3434 260.0334L554.5517 259.0414L554.4549 258.4388L554.6162 257.8363L558.1658 254.3502L558.2806 254.1816L559.5465 253.437L560.6729 253.1315L561.1928 253.1018L561.8128 253.7922L562.3778 253.2968L563.551 254.5058L564.3502 254.7008L565.323 255.7677L566.7385 254.3521L567.1592 254.2835L567.3203 253.7295L567.8327 253.3382L568.1517 252.084L567.6445 251.7611L566.8412 250.7304L566.694 250.3571L566.4624 249.0047L566.6739 247.9081L566.537 246.9394L566.0236 246.561L565.8543 246.1773L565.8819 245.2564L565.7531 245.0565ZM467.3064 263.2089L467.8186 263.2089L467.7603 262.441L467.4799 262.1888L467.1378 262.8051L467.3064 263.2089ZM485.7748 261.2379L484.8758 260.8199L484.7183 261.1524L484.3289 261.3304L484.2008 261.8359L485.0749 261.5053L485.5509 261.7576L486.0684 261.665L485.7748 261.2379ZM200.4362 179.7978L200.0815 179.8832L199.1734 179.4144L198.6383 179.8832L198.3542 180.9887L199.1597 180.7996L199.4065 180.5667L200.3241 180.2565L200.4362 179.7978Z" fill="rgb(0,0,0)" fill-opacity="0" stroke="#666" stroke-width="0.5" class="zr0-cls-0"></path>
<path d="M564.6628 278.9631L563.3068 278.6193L562.3899 278.7976L561.775 278.6271L561.0107 277.7804L560.5726 277.5621L559.7824 277.659L559.1842 277.5641L558.2784 277.028L557.7054 276.8253L557.3041 276.3771L557.0125 276.3706L556.2187 276.7968L555.7278 276.6858L555.2577 277.112L555.0378 277.5679L554.6164 277.7475L552.771 277.639L551.8747 278.009L551.5845 277.7791L551.113 277.0629L549.9457 276.7503L549.5209 276.2602L548.4422 275.633L548.1721 275.9259L548.0447 276.4883L547.6473 277.1901L547.5009 279.1285L547.2465 280.0723L546.7061 280.7273L545.9959 281.2175L545.4727 281.9721L545.3567 282.802L544.8964 283.16L544.8335 283.8496L544.4433 284.7497L543.3472 285.7016L543.3232 286.2112L543.7778 287.2567L543.938 288.2513L543.8029 288.7456L543.1637 289.2033L542.9807 289.6609L542.0955 290.5254L541.8689 290.979L541.9174 291.7818L542.8633 291.2767L543.2913 291.4801L544.7582 291.8663L544.9708 292.0549L545.3003 292.9426L545.8175 293.4602L547.6231 293.5627L548.2265 293.2893L548.5917 292.68L548.9334 292.6684L550.6944 293.9385L551.139 294.1142L551.9505 294.7167L554.8935 296.443L557.3044 296.2514L557.7614 296.141L558.1319 296.3554L558.52 297.1315L559.0522 297.1853L559.3903 297.0238L559.5656 296.3586L559.8083 296.1223L560.5879 296.5343L561.4178 296.2992L561.512 295.8665L561.3197 295.4532L561.5634 294.3682L561.9523 294.1745L562.4488 293.5919L562.6379 292.9952L563.0426 292.9022L563.7377 293.1489L564.1163 292.7354L564.5889 291.6932L564.2852 290.7297L564.4913 289.9418L564.2148 289.4729L564.8045 288.809L564.2027 286.8651L564.2896 286.2115L564.2349 285.4637L564.3274 284.947L563.9784 284.3839L563.7319 283.3622L564.1385 283.0832L563.6989 282.5459L562.9009 282.3496L562.7278 281.8665L563.0651 281.2362L564.5298 280.704L564.6996 279.8347L564.6628 278.9631Z" fill="rgb(56,56,56)" fill-opacity="0.3655913978494624" stroke="#666" stroke-width="0.5" class="zr0-cls-0"></path>
<path d="M567.7022 269.666L567.3123 268.7364L566.7819 268.314L566.5044 267.3414L566.2372 267.0166L565.4477 267.0069L565.0617 266.6756L564.7035 265.7153L564.2792 265.0694L563.8796 264.8589L562.6568 265.2987L561.775 265.3084L561.0175 265.5842L560.5469 265.5932L560.5147 266.4657L559.6378 267.3498L559.2576 268.0111L558.8967 268.2888L558.1542 268.4451L557.5601 268.3973L557.0714 268.1829L555.9857 267.2097L555.4405 267.4247L554.4268 266.7111L553.5506 266.3914L552.9335 266.622L552.0515 265.763L551.4722 265.3743L550.6145 265.2838L550.2957 265.784L549.7778 267.0645L549.1561 268.1567L549.4524 268.7792L549.5283 270.3108L549.4524 270.7482L548.957 271.1712L549.0085 272.1984L548.8712 274.3566L548.4422 275.633L549.5209 276.2602L549.9457 276.7503L551.113 277.0629L551.5845 277.7791L551.8747 278.009L552.771 277.639L554.6164 277.7475L555.0378 277.5679L555.2577 277.112L555.7278 276.6858L556.2187 276.7968L557.0125 276.3706L557.3041 276.3771L557.7054 276.8253L558.2784 277.028L559.1842 277.5641L559.7824 277.659L560.5726 277.5621L561.0107 277.7804L561.775 278.6271L562.3899 278.7976L563.3068 278.6193L564.6628 278.9631L564.8384 278.0368L565.5601 276.0993L565.1891 275.4419L565.5935 275.2094L565.7897 274.8193L566.0183 273.4386L566.741 272.599L567.0824 271.7142L567.6036 271.0697L567.5491 270.0416L567.7022 269.666Z" fill="rgb(0,0,0)" fill-opacity="0" stroke="#666" stroke-width="0.5" class="zr0-cls-0"></path>
<path d="M558.52 297.1315L558.1319 296.3554L557.7614 296.141L557.3044 296.2514L554.8935 296.443L551.9505 294.7167L551.139 294.1142L550.6944 293.9385L548.9334 292.6684L548.5917 292.68L548.2265 293.2893L547.6231 293.5627L545.8175 293.4602L545.3003 292.9426L544.9708 292.0549L544.7582 291.8663L543.2913 291.4801L542.8633 291.2767L541.9174 291.7818L541.6859 292.3764L541.8197 292.89L541.5577 293.3599L541.6859 294.4308L541.6062 294.9678L541.0108 296.593L541.2672 296.8461L541.7436 296.8509L541.9046 297.279L541.6972 297.5953L541.9257 298.6911L542.4468 298.9843L543.5929 299.844L543.7817 300.1663L543.8825 301.3527L544.1919 301.711L544.1501 302.1997L543.329 302.2047L543.2722 302.5629L544.3555 302.7132L545.2731 302.5166L545.7903 302.6762L546.4551 303.4059L547.6092 304.0301L547.6528 304.2796L546.9768 304.8409L546.9108 305.79L547.4961 306.0936L549.3969 305.8045L550.1228 305.7852L550.7459 305.6335L551.0936 305.361L551.942 305.0861L552.9497 305.269L553.4163 305.2519L553.9154 304.4782L554.5506 304.0726L555.0587 304.1016L555.9705 304.787L557.1977 304.9735L557.9454 304.908L557.4727 304.3861L557.3874 303.7842L557.0242 303.451L557.4373 303.1836L557.1961 302.6398L557.2925 302.149L556.9515 301.6052L557.3603 300.6223L557.4184 299.7195L558.2622 299.5076L558.1249 298.6642L558.205 297.6218L558.52 297.1315Z" fill="rgb(44,44,44)" fill-opacity="0.2903225806451613" stroke="#666" stroke-width="0.5" class="zr0-cls-0"></path>
<path d="M558.6294 317.9086L558.2302 317.5815L556.883 316.9867L555.9988 316.8834L555.1284 317.2276L554.4311 318.1233L553.5397 318.6393L553.0437 318.804L552.6407 319.1889L552.2822 318.8273L552.0786 317.7642L551.7926 317.391L552.0517 317.0119L551.6964 316.605L550.2794 316.658L549.5967 316.1581L548.572 316.3189L548.0998 315.7073L547.3572 315.035L546.1476 314.4661L545.7167 314.105L544.9563 313.1163L544.6683 312.1075L542.8987 311.6406L541.5788 311.5289L540.9971 311.5922L540.2885 311.9196L539.4621 311.7033L539.0126 312.4724L539.0492 312.8225L539.4423 313.2545L539.4803 313.755L538.8099 314.7773L538.738 315.6311L538.4842 316.7122L539.1226 317.3542L539.1783 317.8353L538.0471 319.6081L537.4026 320.2577L537.3031 320.7983L537.5322 321.7186L537.3045 322.1707L536.9798 321.9782L536.7739 321.4783L536.3932 321.4674L535.1126 322.0576L535.1546 322.6312L535.5055 324.0794L535.9723 324.6978L536.6481 327.5333L537.3781 329.5511L537.6718 330.8336L538.068 331.0319L537.8289 331.7255L537.9624 332.8808L537.7225 333.4322L538.699 333.4957L539.7043 333.1625L540.4384 333.3562L540.5723 333.703L540.2577 335.6185L540.3517 335.9731L542.0152 335.9188L544.2963 336.3987L545.3442 337.0186L545.9037 337.771L546.6883 337.5282L547.3401 337.9066L548.7769 337.9221L549.4824 337.7297L549.9987 337.2337L551.2961 334.438L551.7703 334.2914L552.3985 334.8087L552.6392 335.3117L552.7717 336.1085L553.1497 336.3528L553.9068 336.296L554.1349 335.6786L553.7009 335.2627L554.4536 334.0317L554.3141 333.3962L554.8421 332.886L555.0131 331.5595L554.9128 329.8675L554.7409 328.9349L554.8838 327.8022L555.3061 327.2106L556.1586 326.7379L556.6434 326.2212L557.3482 326.0959L558.3268 325.4436L559.0878 325.4953L559.9633 324.7539L559.8734 324.1494L560.303 323.4171L560.1992 322.7067L559.245 321.8542L559.0268 321.4202L558.6242 319.4208L558.6294 317.9086ZM531.7637 320.6215L531.0981 320.0316L531.1584 320.772L531.4856 321.2358L531.8655 320.9449L531.7637 320.6215Z" fill="rgb(0,0,0)" fill-opacity="0" stroke="#666" stroke-width="0.5" class="zr0-cls-0"></path>
<path d="M557.9454 304.908L557.1977 304.9735L555.9705 304.787L555.0587 304.1016L554.5506 304.0726L553.9154 304.4782L553.4163 305.2519L552.9497 305.269L551.942 305.0861L551.0936 305.361L550.7459 305.6335L550.1228 305.7852L549.3969 305.8045L547.4961 306.0936L546.9108 305.79L546.9768 304.8409L547.6528 304.2796L547.6092 304.0301L546.4551 303.4059L545.7903 302.6762L545.2731 302.5166L544.3555 302.7132L543.2722 302.5629L543.329 302.2047L544.1501 302.1997L544.1919 301.711L543.8825 301.3527L543.7817 300.1663L543.5929 299.844L542.4468 298.9843L541.9257 298.6911L541.6972 297.5953L541.9046 297.279L541.7436 296.8509L541.2672 296.8461L541.0108 296.593L540.7351 297.4982L540.1462 297.7291L540.1439 298.2813L540.4147 298.8753L540.0158 300.0388L539.3766 300.0388L538.8579 299.4346L538.5383 300.3032L538.0905 300.8076L538.4849 301.0304L538.6721 301.5399L538.5642 302.9902L538.3468 303.5018L538.4101 304.5696L538.0753 305.6182L537.3861 306.2905L536.2538 306.5722L535.6538 306.5478L535.3247 306.2122L534.3399 305.5582L533.9925 306.1328L533.9769 306.9739L533.7015 307.693L533.7381 308.1466L534.3033 308.7731L534.4177 309.2124L534.3724 310.0189L533.6832 310.8559L533.5875 311.3848L533.7907 311.8984L533.7728 312.6063L534.2042 313.0975L534.8075 314.1898L535.3178 315.279L535.6229 316.2615L535.6969 317.2592L535.5188 318.8376L535.1546 319.4499L535.2629 320.0682L534.9425 321.37L535.1126 322.0576L536.3932 321.4674L536.7739 321.4783L536.9798 321.9782L537.3045 322.1707L537.5322 321.7186L537.3031 320.7983L537.4026 320.2577L538.0471 319.6081L539.1783 317.8353L539.1226 317.3542L538.4842 316.7122L538.738 315.6311L538.8099 314.7773L539.4803 313.755L539.4423 313.2545L539.0492 312.8225L539.0126 312.4724L539.4621 311.7033L540.2885 311.9196L540.9971 311.5922L541.5788 311.5289L542.8987 311.6406L544.6683 312.1075L544.9563 313.1163L545.7167 314.105L546.1476 314.4661L547.3572 315.035L548.0998 315.7073L548.572 316.3189L549.5967 316.1581L550.2794 316.658L551.6964 316.605L552.0517 317.0119L551.7926 317.391L552.0786 317.7642L552.2822 318.8273L552.6407 319.1889L553.0437 318.804L553.5397 318.6393L554.4311 318.1233L555.1284 317.2276L555.9988 316.8834L556.883 316.9867L558.2302 317.5815L558.6294 317.9086L558.6872 316.9318L558.4298 316.5701L557.9597 315.365L557.8912 314.8303L557.5318 314.0941L557.0464 312.4395L557.0571 311.4372L557.5332 310.9967L557.4523 310.4129L557.648 309.6935L557.6272 309.1548L556.9554 307.9084L556.8537 307.2729L557.4078 306.3003L557.3971 305.5499L557.6078 305.1159L557.9454 304.908ZM534.9655 303.4835L534.9406 303.8517L535.2478 304.2465L535.6317 304.0691L534.9655 303.4835Z" fill="rgb(137,137,137)" fill-opacity="0.8924731182795699" stroke="#666" stroke-width="0.5" class="zr0-cls-0"></path>
<path d="M552.7717 336.1085L552.6392 335.3117L552.3985 334.8087L551.7703 334.2914L551.2961 334.438L549.9987 337.2337L549.4824 337.7297L548.7769 337.9221L547.3401 337.9066L546.6883 337.5282L545.9037 337.771L545.3442 337.0186L544.2963 336.3987L542.0152 335.9188L540.3517 335.9731L540.2577 335.6185L540.5723 333.703L540.4384 333.3562L539.7043 333.1625L538.699 333.4957L537.7225 333.4322L537.9307 333.8247L537.6916 334.2376L537.7705 334.7278L537.3838 335.3431L537.2419 335.8923L536.2286 337.2948L536.4845 337.8928L536.2675 338.6596L536.5131 339.3288L535.7381 339.0298L535.1882 339.7031L534.5718 339.9167L534.105 340.2889L533.6309 340.3886L533.3407 340.8381L533.7213 341.4931L533.8487 342.4766L533.494 342.6871L533.1454 343.2912L533.2728 343.7184L533.0177 344.5198L533.776 344.8065L535.8081 344.8065L536.3111 344.9176L537.5981 345.4084L538.1611 345.5195L539.4578 345.3768L540.1015 345.5195L540.5142 346.0898L540.875 347.2845L541.1007 347.6346L542.6531 348.8352L543.462 349.2672L544.4714 349.5126L545.6814 349.5507L548.7498 349.3699L549.3005 349.2472L550.4141 348.5245L550.7144 348.0989L551.2433 346.4366L551.4254 346.248L552.041 346.2687L552.4213 345.3594L552.4523 344.906L552.1684 344.6309L551.7504 344.751L551.0597 343.7332L551.2757 342.1031L551.594 342.0683L552.3723 342.3447L552.492 341.8668L552.4024 341.2261L552.924 340.2458L552.9584 339.7963L552.508 339.3481L552.0851 337.687L552.2755 337.027L552.0439 336.4006L552.4314 335.7147L552.7717 336.1085Z" fill="rgb(0,0,0)" fill-opacity="0" stroke="#666" stroke-width="0.5" class="zr0-cls-0"></path>
<path d="M551.5705 366.0972L551.3382 364.4458L550.7492 363.4293L550.6359 362.5471L550.1021 361.7657L550.1016 361.3898L550.7831 360.6949L550.4509 359.8554L550.5342 359.0623L550.308 358.1995L550.5947 356.7193L550.4441 355.8513L550.6136 355.6886L550.787 354.3194L550.6506 353.7327L550.8001 352.834L550.245 351.731L549.8241 350.11L550.5947 349.1942L550.7846 348.8106L550.7144 348.0989L550.4141 348.5245L549.3005 349.2472L548.7498 349.3699L545.6814 349.5507L544.4714 349.5126L543.462 349.2672L542.6531 348.8352L541.1007 347.6346L540.875 347.2845L540.5142 346.0898L540.1015 345.5195L539.4578 345.3768L538.1611 345.5195L537.5981 345.4084L536.3111 344.9176L535.8081 344.8065L533.776 344.8065L533.0177 344.5198L532.8895 345.9843L532.7152 346.5722L532.9925 347.0522L533.2065 347.9083L532.9047 348.7028L532.1474 349.4395L532.4531 349.9304L531.9535 350.6644L531.8727 351.3612L531.6625 351.9024L532.0242 352.5571L531.1594 353.2654L531.4147 355.5131L531.6463 355.9098L532.0225 357.0922L532.15 357.7642L532.0317 358.8801L532.408 359.8168L532.5535 360.6744L533.5291 361.008L533.4726 362.1258L533.1424 363.0339L533.8487 363.0715L534.687 363.3278L535.2072 363.6482L536.031 363.3278L536.6306 363.2719L538.147 363.4122L538.4101 362.9861L538.7065 363.038L539.1001 362.4847L539.4799 362.321L539.3361 361.5633L538.986 360.9307L539.7013 360.5638L539.8279 360.0367L540.2408 360.0501L540.4353 359.6482L541.1073 359.9991L541.4044 359.818L542.3632 360.4588L542.5055 360.8686L542.9074 361.2653L543.0577 362.023L543.6954 362.4369L545.5078 361.8318L545.9147 360.9795L546.1187 359.3014L546.5669 360.1547L546.3746 360.3327L546.2049 361.1056L546.2248 361.6894L545.5078 362.2569L544.0699 362.7349L543.3609 362.6383L541.8232 364.1669L541.711 364.5605L541.3132 364.9266L541.7587 365.8409L542.4971 366.2762L542.9715 366.0667L543.2717 366.3596L543.9662 366.4918L544.56 365.489L545.0722 365.9213L544.8335 366.9108L544.9471 367.8384L544.9517 368.89L545.5428 369.069L544.9696 369.4738L544.9444 369.9487L545.2808 370.5274L545.473 371.5963L545.1321 371.6116L544.1782 368.7405L543.597 368.411L543.0997 368.7191L541.8182 369.1422L541.4994 369.5795L541.9765 369.9213L542.2614 370.8671L542.6954 371.1081L542.6801 371.5078L543.0486 372.0814L544.1733 372.6611L544.1294 373.1717L543.417 372.7771L543.0356 372.4028L542.3445 372.2493L541.6859 372.4028L541.3769 373.0497L541.3014 373.8613L541.6367 374.2579L541.3014 374.8071L541.3014 375.4905L541.5139 376.5757L542.4048 377.4717L542.2743 378.7125L542.5234 379.5953L542.0043 379.28L541.8655 378.7735L541.3014 378.8335L540.6492 379.8272L540.848 380.712L540.8579 381.5419L539.5123 382.207L539.2419 382.5528L539.2354 383.3797L538.9914 384.3611L539.3952 385.0222L539.7907 385.9314L540.663 385.9213L540.2877 386.3647L540.1485 386.9281L539.6264 387.2973L539.638 387.7173L540.573 387.2516L541.2613 387.2419L541.6708 386.5535L542.2063 387.6681L543.5114 388.0065L543.9352 388.2545L544.5782 388.2558L545.2602 387.8516L546.1442 387.7605L546.9702 388.5678L546.8734 388.9908L547.466 389.4532L548.0804 390.3444L548.5713 390.5653L549.7115 390.6034L551.3159 391.0968L551.7954 391.6591L552.5046 390.5943L552.5956 390.1758L551.9505 389.1748L551.1023 388.0731L551.252 387.6727L551.9785 387.3149L552.1854 386.9933L551.997 386.0323L551.2757 385.4007L550.5904 385.3348L550.7313 384.8388L550.6373 384.3803L549.9951 384.3092L549.9612 383.4955L550.2591 383.0951L550.3288 382.6237L551.7446 382.2904L551.6855 381.54L551.8168 380.9755L551.562 380.6165L550.7023 380.2638L549.3155 380.1037L548.5071 379.5806L548.0155 378.5834L548.3516 376.8978L548.2712 375.096L548.0969 374.4734L548.0165 373.5086L548.2582 372.7246L549.0147 372.2389L548.7028 371.5233L548.8389 370.7122L548.2683 370.0141L548.2388 369.3928L548.8554 368.5713L549.0336 367.91L549.6187 367.6685L549.8948 368.1929L550.2562 368.2549L550.4925 367.9048L551.2699 367.7305L551.8797 367.1505L551.8487 366.5008L551.5705 366.0972ZM534.3033 377.8023L535.3239 378.1125L535.8163 378.5213L536.3586 378.5772L536.4307 378.2325L534.5192 377.5185L534.3033 377.8023ZM534.3666 373.3415L533.1134 373.5124L533.2728 374.0321L533.893 373.8979L534.2538 374.085L534.3666 373.3415ZM536.1698 372.6713L535.1698 371.4224L534.9433 370.8407L534.1203 370.7003L534.1752 371.6441L536.1698 372.6713ZM539.2133 369.1951L538.6721 369.5795L538.7076 370.023L539.3483 369.7138L539.2133 369.1951ZM544.3209 367.8648L544.6458 367.8384L544.6344 367.0186L544.0188 366.8193L543.7091 367.5007L544.3209 367.8648ZM527.5253 382.1196L527.9119 382.5981L528.6444 382.7251L529.4437 383.0593L529.7432 383.5337L530.1614 383.1352L530.7384 383.4526L531.3223 383.1597L531.8146 383.8728L532.5318 383.7164L532.5366 383.0957L533.1821 383.5064L533.6449 383.3622L533.7941 382.4717L533.7061 382.0967L533.052 381.4361L533.0454 380.7289L533.2728 380.3703L534.5238 379.935L535.1206 380.237L535.4414 379.8496L534.6229 378.1714L534.2065 378.1247L533.9052 377.7077L533.9448 377.1402L534.3033 376.9418L534.6744 377.0995L535.4017 376.9347L535.4239 376.3326L535.192 375.9655L534.1069 375.3583L533.4845 374.4328L533.1424 374.3291L532.4505 373.7087L532.3773 373.4341L532.6332 372.4028L532.97 372.771L533.4017 372.83L534.1943 372.5533L533.581 371.7601L533.7213 371.2007L533.6466 370.7267L533.9372 370.4196L534.6695 370.1389L535.2629 370.1776L535.9723 369.844L536.2583 369.9721L536.5291 369.3192L536.4147 368.5483L535.4505 367.9218L535.3266 367.5597L535.8403 366.8803L535.3769 366.3169L535.036 365.6782L534.613 365.4209L535.0646 364.9388L535.0013 364.1028L534.6172 363.5841L534.0859 364.0143L533.5581 363.7153L532.748 364.3286L532.2942 364.3133L531.9174 364.7557L530.8159 364.4333L530.8205 363.8638L531.6355 364.1364L531.6904 363.6665L531.1317 363.755L530.3239 363.2424L530.0615 363.6767L530.375 364.2665L530.5459 364.95L530.1435 365.4148L530.2374 366.8244L530.0615 367.221L530.1618 367.7311L529.283 368.8081L529.0798 369.418L529.3194 370.0844L528.8845 371.4998L528.9468 372.1433L529.3094 373.3278L529.4666 374.4895L529.0642 375.6838L529.1913 376.1514L529.0931 377.1312L528.4849 377.5582L528.6067 378.3157L528.5105 378.8853L528.0365 379.4554L527.4902 379.8496L527.74 380.318L527.3453 380.5127L526.9033 381.8541L527.2563 382.2453L527.5253 382.1196ZM539.2133 364.1455L539.6954 364.3591L540.0066 364.1567L539.5345 362.9424L539.2305 362.9505L539.3766 363.754L539.2133 364.1455ZM528.287 382.9784L528.093 383.1139L527.9996 383.8213L528.3465 383.7661L528.287 382.9784ZM533.5571 380.9509L533.3 381.2986L533.837 381.6587L533.8821 381.0489L533.5571 380.9509ZM539.9486 374.791L539.7196 375.0238L540.1818 375.6241L540.4422 376.1975L540.7957 375.9317L540.6867 375.1419L540.2067 375.2733L539.9486 374.791Z" fill="rgb(153,153,153)" stroke="#666" stroke-width="0.5" class="zr0-cls-0"></path>
<path d="M551.7954 391.6591L551.3159 391.0968L549.7115 390.6034L548.5713 390.5653L548.0804 390.3444L547.466 389.4532L546.8734 388.9908L546.9702 388.5678L546.1442 387.7605L545.2602 387.8516L544.5782 388.2558L543.9352 388.2545L543.5114 388.0065L542.2063 387.6681L541.6708 386.5535L541.2613 387.2419L540.573 387.2516L539.638 387.7173L540.2282 388.1119L541.2034 387.8902L541.2316 388.3357L540.7202 388.4384L540.3415 388.8483L539.8472 388.7008L539.4982 389.3598L539.4399 389.8724L538.9067 390.4979L538.7305 390.9108L538.79 391.7041L537.9624 392.0631L537.9624 392.4903L537.4315 392.472L537.3766 393.2724L538.182 393.5399L538.9242 393.0852L538.7305 393.728L538.2347 393.9314L538.5394 394.3515L539.5512 394.5132L540.3972 394.8305L540.7229 395.103L540.6557 395.6543L541.4551 396.1262L541.7843 396.474L542.4593 396.8534L542.5234 397.2805L542.9708 397.2012L543.2133 396.5025L543.6138 396.9113L543.8029 397.4117L543.0356 397.8897L542.8129 399.0247L542.5734 399.4153L542.7526 400.0621L542.5875 400.5767L541.8152 400.6916L540.8335 401.6924L540.0509 401.8643L538.9372 402.9484L538.3468 402.8956L537.838 403.16L536.7705 403.0664L536.3064 403.4468L536.2286 403.9197L537.1813 405.4036L536.9326 405.8124L536.4475 406.0189L535.9376 405.9762L535.7168 406.922L536.0493 407.1895L536.9513 407.1427L537.629 406.6962L538.3788 407.1142L539.2934 408.0275L540.208 408.6052L540.7385 408.6845L541.3613 408.4587L541.6222 408.8188L541.3514 409.3985L539.9006 409.1524L538.5165 408.1638L538.0791 407.3705L536.9631 407.8546L536.5577 408.1791L536.0749 408.8371L535.5817 408.9001L535.1859 409.3476L534.9517 410.861L534.7358 411.4997L534.6435 412.6327L535.0409 412.8564L535.4452 412.6754L536.0951 411.7153L536.9673 411.3308L537.2583 411.7153L538.1836 411.8434L538.1836 412.057L536.695 412.1933L536.266 412.3662L535.0013 413.6436L534.7511 414.1114L534.8342 414.562L534.3209 414.8803L534.2053 415.4712L533.8434 415.7875L533.9448 416.7222L534.2328 417.37L533.9601 418.5254L533.5505 419.2963L533.5875 420.116L534.4124 419.1752L534.6329 418.6138L535.6344 417.2073L536.0017 416.4628L536.4136 416.3428L536.6824 416.6184L536.0631 416.9835L535.5188 417.8745L535.1241 418.2813L534.5966 419.9685L533.7335 420.5848L533.0768 421.3527L532.24 423.3136L531.8438 423.6176L531.3689 423.5515L530.7633 423.0868L531.4818 421.9507L531.9936 421.4748L532.5909 420.6103L532.8895 419.5109L532.819 419.0227L531.9936 418.3942L531.7694 417.8633L530.7953 418.0107L530.5097 418.8213L531.1023 418.9851L531.1752 419.4122L532.1157 420.3652L531.5394 420.2797L531.2099 419.9024L530.4139 419.6746L530.2969 419.1783L529.938 418.6382L528.8823 419.1193L528.8666 418.8203L530.0657 418.2416L530.462 417.9436L530.9376 417.1432L530.83 416.4628L530.3804 416.1963L529.8758 416.4628L529.6573 416.0234L530.0615 415.6482L529.9124 415.1061L529.3918 414.4308L529.695 414.0524L529.195 413.5582L528.8869 413.5124L527.9444 413.7799L527.2911 413.4707L526.4753 413.6955L526.269 414.026L526.4719 414.7694L526.9147 415.222L526.4963 416.1913L526.1538 416.1963L526.4158 415.3919L525.9055 415.1844L525.4132 413.9202L524.9746 414.1653L524.5943 413.7941L524.1859 414.1114L523.8312 415.3919L523.9753 415.8973L523.0577 417.1493L522.9342 417.6649L523.4231 418.1592L523.2065 418.7054L522.5509 417.968L522.1321 417.968L521.6813 418.7816L521.2271 418.9312L520.4387 418.7918L519.9891 420.0163L519.3979 419.8526L519.1615 420.9632L518.7522 420.6204L518.052 421.0252L517.629 421.432L517.642 422.0494L517.2217 422.0707L517.0429 422.4572L516.2217 422.506L516.4422 423.0186L515.327 423.2525L514.6836 424.0804L514.6618 425.9212L515.1599 426.507L515.163 426.9189L515.8026 427.3837L516.1172 427.9431L516.8964 427.9044L517.4406 427.7336L517.9837 427.3461L517.6641 425.8399L517.0818 425.5459L517.3289 425.014L516.9422 424.8381L516.2217 424.8167L515.3712 425.907L515.6954 424.8503L516.0234 424.5991L517.1904 424.2126L518.0798 424.3062L518.2446 424.0906L519.3979 423.9645L520.2423 423.4254L520.5852 423.0695L520.806 422.506L521.1569 422.5915L521.6207 421.7656L521.8358 422.5498L521.3239 422.8396L520.5074 424.1007L521.1371 425.0812L521.1481 425.4544L521.6813 425.5856L522.6351 426.263L523.1676 426.1043L523.8987 426.5894L524.2789 427.1376L524.8663 427.04L526.1706 427.3675L526.0474 426.8813L525.4978 426.5315L524.5802 426.4552L524.5612 425.9436L525.7248 426.1043L526.5245 425.6792L527.4902 425.6792L528.1607 425.8602L528.1733 426.4735L528.3811 426.8976L528.9624 426.6169L528.7267 427.4376L529.5497 428.4394L530.4734 428.3174L531.1401 428.7832L531.0589 429.3425L530.1256 430.5498L530.221 430.9647L529.5802 431.0003L529.3583 431.3675L528.6397 431.1468L528.0493 431.3929L527.6184 431.3247L527.2263 432.2218L526.761 432.6052L526.8449 432.8686L526.1462 433.2958L525.7046 433.8663L525.9136 434.4582L526.5303 434.1562L526.5886 434.925L526.9845 435.2719L527.4322 435.0868L527.584 435.9085L528.0036 436.1343L528.552 435.8638L529.0863 435.8943L529.0268 436.3031L528.282 436.4781L528.3918 436.8096L527.8163 437.0659L527.3247 436.9601L527.4322 436.5452L527.176 435.9492L526.7259 435.6298L526.0745 435.638L525.4437 435.4631L524.9242 435.6929L524.6832 436.6591L524.3564 436.6896L523.761 437.3934L523.9998 437.8043L524.7717 438.1836L526.1866 438.1134L527.1149 437.8968L527.0463 438.325L527.6813 438.4582L527.9307 438.1887L528.8106 438.4521L529.9708 438.2497L530.3331 438.8549L531.3769 439.1203L532.5188 438.6748L532.819 438.2213L532.6332 437.8327L533.1836 436.3835L532.7614 436.0346L533.1332 435.279L533.7213 435.6929L533.4475 436.0021L533.4593 436.4597L533.7633 436.6754L533.0898 437.3751L533.3827 438.2874L533.7213 438.5162L534.6149 438.5833L534.2328 439.3847L535.2629 439.8119L535.0428 440.6804L534.6397 439.9594L534.0108 439.7936L533.893 440.2401L534.1561 441.0039L534.5894 441.2469L534.4891 441.61L535.2339 442.208L535.5188 442.627L536.2827 443.1112L537.4414 442.8152L536.7618 443.4793L535.9708 443.2942L535.3262 443.3003L534.8209 444.1709L534.3666 443.6583L534.4887 442.8447L534.0714 442.4969L532.8918 442.1796L532.9216 441.6019L532.3335 441.7971L531.6824 441.3639L531.0219 441.6873L530.0936 441.0913L528.748 440.9601L527.7564 440.9662L527.7179 441.5348L528.8243 443.7539L528.002 443.224L527.7682 441.9822L527.5276 441.488L526.7682 440.8818L525.8152 440.5787L524.7998 441.1389L524.7865 441.8222L525.1501 442.0857L526.0257 441.5093L526.269 441.7829L525.8621 442.2101L526.5142 443.3654L527.6824 443.7366L528.0657 444.4262L528.2099 445.2744L528.5314 445.5093L529.2095 445.5581L529.6374 445.906L530.7038 446.2619L531.2682 446.0311L531.4452 446.3209L530.3941 446.685L530.4685 447.7549L530.9258 448.1475L530.446 448.4526L530.1668 447.9583L528.814 447.0013L528.1275 447.4712L528.1302 447.7702L527.5875 447.9472L526.986 448.5726L527.176 449.4351L527.7297 449.8032L527.7915 450.1806L529.0745 449.8755L529.8255 450.0494L530.0363 450.3586L538.4371 456.7186L538.429 455.9497L539.1245 455.0998L539.2984 454.3171L539.9436 453.4633L540.7636 452.9867L541.6757 452.8898L542.4443 452.5062L543.6078 451.3296L543.8558 450.9731L543.9899 450.1077L543.9318 448.7837L543.6461 447.4598L544.0016 446.7365L544.7543 446.2741L545.3481 446.0894L545.8727 445.4642L546.6418 445.2511L546.3556 444.6544L546.5067 443.7257L546.1923 441.9665L545.7012 441.7224L545.4789 441.2057L544.9325 441.0081L544.3905 440.4088L544.3096 440.0213L544.717 439.2476L545.1214 437.9508L546.0068 436.5248L546.1793 436.1154L546.4001 434.8173L545.9352 434.5189L546.3265 433.9183L546.7067 433.775L547.4473 433.8408L547.8092 433.682L548.8646 432.4872L549.1319 431.9589L549.0191 431.1349L549.3155 431.0651L550.2276 431.5198L550.5259 431.3622L550.696 430.6996L550.4063 430.1054L549.5548 429.5952L549.408 429.116L550.2063 428.5697L549.6924 427.7637L550.0135 426.6658L550.0251 426.0833L550.7594 426.02L551.5073 425.316L552.3399 424.7154L552.4053 424.3344L552.2614 423.429L552.3612 422.5804L551.7335 421.0033L551.6424 420.5654L551.6259 419.1472L551.4438 418.8992L550.2072 417.9951L550.4339 417.7587L551.562 417.4991L551.9994 416.8119L552.6961 416.0841L553.0417 415.7231L552.7695 414.9132L552.5394 414.642L551.8148 414.3113L551.6114 413.9794L551.7601 413.4265L551.2961 412.8414L551.4651 412.2098L551.4472 411.6144L551.7955 411.1042L551.6095 410.7477L552.0909 410.2582L552.7894 410.0928L553.8521 410.0799L554.2691 409.4419L554.0163 408.6979L554.9574 408.3272L555.8607 407.3365L555.6069 406.5215L555.0746 405.9183L554.5728 405.5812L554.1219 404.9896L553.5769 403.667L553.2626 403.3208L552.1975 403.2653L551.6584 402.7421L551.2292 402.7099L550.4441 402.9346L548.649 402.1764L548.713 401.5577L548.5759 400.8796L548.9595 400.5296L549.5238 400.7504L550.771 400.9817L551.4051 400.5606L551.8449 400.5657L552.8644 400.8447L554.1214 400.381L555.2296 400.9933L555.6316 401.1147L556.3175 400.8086L556.6154 399.9638L556.5253 399.3219L557.0111 398.4048L557.5468 398.2279L557.6311 397.7241L557.324 397.3276L557.1748 396.7477L556.8144 396.4403L556.0922 396.3873L554.6769 396.1148L552.7521 396.1277L551.8652 396.0127L551.0757 396.1354L550.6809 395.5852L551.1847 395.2662L550.9841 394.4731L551.2234 393.8777L551.1653 393.4437L550.7318 392.4439L551.3227 392.1714L551.7954 391.6591ZM518.1119 448.8869L516.9723 449.8327L516.0589 450.0738L515.5303 449.8744L515.163 450.0341L515.2164 450.8203L515.5467 451.0196L516.8266 450.6779L517.56 449.906L518.0543 450.2935L518.5051 450.1734L518.5665 449.5612L518.1119 448.8869ZM518.211 447.9868L517.9837 447.5993L517.8564 446.746L517.0654 446.446L516.3743 446.983L515.6046 446.5752L515.0928 447.3858L515.131 448.1729L514.9586 448.3743L515.42 448.9845L516.7042 448.6306L517.0474 448.9713L516.6081 449.3354L515.7069 449.3141L515.9159 449.8236L516.544 449.7687L518.1027 448.7699L518.211 447.9868ZM526.237 446.7847L526.6405 447.6573L527.7885 447.2027L527.8182 446.9637L526.8449 446.3118L526.192 446.1541L525.9166 446.4399L526.237 446.7847ZM529.8117 447.0796L530.1538 446.7725L530.1256 446.4043L529.5329 446.146L528.8461 445.6283L528.3605 446.0128L528.9834 446.624L529.8117 447.0796ZM526.0181 445.4585L526.3422 445.8907L527.4834 446.3718L528.1149 446.8681L528.4849 446.3545L527.8281 445.6273L527.8689 444.6855L527.4239 444.6265L526.687 445.4178L526.0181 445.4585ZM525.9834 448.3743L525.5306 448.7842L525.0432 448.1302L525.0181 447.0257L524.594 446.1826L525.1607 446.1277L524.8712 445.2571L524.2877 444.8777L524.4067 444.3886L523.8327 443.6695L524.1229 443.3898L523.8922 442.7176L523.4978 442.9932L523.5108 443.7366L523.176 444.415L523.0577 445.6283L523.9399 446.7542L523.3361 447.1478L523.06 446.7074L522.9761 446.1287L521.7984 446.3046L521.211 446.9403L520.9788 447.3908L521.187 448.4201L521.7843 448.8289L523.2492 449.0506L523.6264 448.953L524.8411 449.7321L525.7152 449.5205L526.0474 449.0934L525.9834 448.3743ZM525.5646 445.1096L525.7934 445.25L526.8758 444.7099L527.1691 444.2502L526.8228 443.7488L526.2179 443.3329L525.9486 442.8823L525.43 442.6148L525.1805 443.1386L525.0028 444.0285L525.4307 444.1282L525.5646 445.1096ZM519.782 444.8157L520.5024 445.786L520.7568 446.4938L520.9971 446.6321L522.8129 445.3954L522.8365 444.2014L523.0646 443.9858L523.121 443.2668L522.9026 442.9043L522.3244 442.5824L521.1247 442.1236L520.6195 442.4562L519.7179 442.027L518.8861 441.9436L519.8068 444.3438L519.782 444.8157ZM519.8838 449.3141L520.6195 448.5381L520.4223 447.9482L520.507 447.4315L520.3636 446.9088L519.8663 446.1968L519.7442 445.7046L519.3773 445.2795L518.8228 443.9227L518.5634 443.6644L518.7683 443.16L517.745 441.189L517.3384 441.433L516.8358 441.4147L516.1229 441.7829L515.8026 442.1572L515.9853 443.2271L516.4101 444L517.0997 443.9187L516.1195 444.7567L516.192 445.1096L516.9601 445.0313L517.4277 444.6286L517.4872 445.3903L516.0867 445.8175L516.2522 446.2823L516.9753 446.2924L517.2805 445.97L517.8564 445.8846L518.7522 446.3118L518.2831 447.2403L518.5406 447.8485L518.4384 448.3062L518.9532 449.2968L518.9509 449.671L519.3632 449.8317L519.8838 449.3141ZM518.7522 441.433L519.4319 441.5856L520.3289 440.9632L520.9258 440.9408L520.9746 441.4758L522.259 441.9386L523.226 442.0608L523.844 442.4094L523.0417 440.3224L523.4845 439.639L523.2728 438.7406L522.4811 438.7806L521.8237 439.6322L521.212 439.439L520.4649 439.4278L519.3483 440.0481L519.0776 440.7415L519.1172 441.1544L518.7522 441.433ZM526.7839 440.3143L527.6767 440.8513L529.5787 440.4099L530.4319 440.5096L531.0051 440.1729L531.3178 440.5574L532.2438 440.4933L532.4353 439.9828L532.3636 439.4163L531.3049 439.5881L530.7042 439.2566L529.9605 439.1844L528.3632 438.6667L527.9444 438.6789L526.9467 439.0796L525.9486 440.0601L526.7839 440.3143ZM519.5795 438.98L520.0498 439.0849L520.813 438.8703L521.0668 438.6282L520.5657 438.2457L520.7323 437.9603L520.4298 437.0931L519.7163 437.4489L518.9859 437.6335L518.526 437.3768L517.9528 437.7885L518.1586 438.0736L519.4932 438.6867L519.5795 438.98ZM522.3645 437.4876L522.189 437.1611L521.2852 436.8645L520.7787 437.2065L521.0335 437.8177L521.685 438.2716L522.5256 438.1272L522.3645 437.4876ZM526.269 429.5256L526.0768 430.0443L526.5303 430.6352L527.6515 429.729L527.3186 429.1513L526.269 429.5256ZM529.9628 428.8422L529.7705 429.1839L529.0959 428.7496L528.671 429.311L528.4994 429.8653L528.6931 430.2314L529.0951 430.2874L529.2942 430.7277L530.0303 430.3067L530.4437 429.6029L530.8937 429.1839L529.9628 428.8422ZM533.2385 416.7222L532.7293 416.6794L532.1859 416.2533L531.5074 416.296L531.2194 416.9428L532.1393 417.7107L532.33 418.3586L533.0478 418.4308L533.1756 417.9151L533.6229 417.4086L533.5985 417.0018L533.2385 416.7222ZM533.4017 415.1366L532.6649 415.0145L532.3323 415.7031L532.3537 416.0753L533.3552 416.3611L533.4017 415.1366ZM523.6046 413.6863L523.1256 413.8389L522.3255 414.6159L522.1023 415.1051L521.5718 414.6596L520.7793 414.386L520.2301 414.6627L520.4917 415.0501L520.457 415.4702L521.3933 416.1607L520.4978 416.4262L520.2942 416.6794L520.5921 417.2642L521.4185 417.492L522.0417 417.3934L522.6748 416.654L523.036 416.5391L523.4788 415.9523L523.6767 414.8417L523.9593 414.1969L523.6046 413.6863ZM533.0814 413.5154L532.5169 414.0402L531.8251 414.2752L531.2194 414.9657L531.2774 415.7407L532.0062 415.6858L532.6332 414.5386L533.4002 414.3911L533.3209 413.7443L533.0814 413.5154ZM531.3476 412.9093L530.2438 412.8228L529.7751 413.1412L529.8091 413.7748L530.1958 414.2752L530.3815 414.8803L530.7107 414.8762L530.9639 414.3209L530.9723 413.2144L531.3476 412.9093ZM523.2492 411.4987L523.015 411.1569L522.4204 411.4L523.1904 412.3113L523.6332 412.3133L523.2492 411.4987ZM525.4658 410.7776L524.4711 411.1112L524.1596 411.6685L524.0959 412.6876L524.4433 412.9784L525.1889 412.7832L525.5024 411.9838L525.2942 411.7682L525.5646 411.1112L525.4658 410.7776ZM529.9921 412.2279L530.6611 412.6123L531.4055 412.3133L531.5932 411.4468L531.5032 410.98L530.9639 410.5132L530.375 410.2569L529.6081 410.9403L529.7156 411.6177L529.9921 412.2279ZM525.9486 412.7466L526.2522 413.2795L526.8548 413.1778L527.4597 412.7557L527.5154 412.1892L528.2004 412.1506L528.7122 411.5363L528.2888 410.5111L528.2492 410.0351L527.9105 409.5815L527.176 409.2337L526.7133 409.2714L526.3133 410.0718L526.2991 410.7481L526.0772 411.1752L526.3796 411.4865L526.3872 412.0601L525.9486 412.7466ZM533.7907 409.0547L533.2652 409.3151L532.8091 409.9924L532.6657 410.7166L533.0814 411.2047L532.3651 411.6238L533.2728 412.4069L533.6573 413.0029L534.2808 412.5248L534.2339 412.0855L533.9128 411.8862L534.4307 410.7776L534.5421 409.5948L534.3811 409.3141L533.7907 409.0547ZM531.7313 409.4819L530.761 408.9367L530.0615 408.8839L529.6626 409.491L529.3026 410.5681L529.9807 410.1257L530.3838 410.0596L531.8758 410.6138L532.3773 409.5276L532.1226 409.2541L531.7313 409.4819ZM525.4658 410.4277L525.9628 410.9434L525.9834 409.8745L526.3975 409.2663L526.269 408.8076L525.79 409.1442L525.3361 410.1389L525.4658 410.4277ZM532.3071 408.5421L532.2717 408.2472L531.2145 408.1719L530.5779 408.353L530.5566 408.7333L531.3952 408.9734L531.9422 408.8473L532.3071 408.5421ZM527.4616 407.8139L527.0131 407.1142L525.9834 407.1691L525.7282 407.5373L526.0768 408.0316L527.1184 408.6052L527.6306 408.3347L527.4616 407.8139ZM532.3071 406.922L531.8541 406.8539L530.7923 406.9779L530.3815 406.7511L530.002 406.147L529.1801 406.5376L529.0959 406.7511L529.4479 407.6431L530.5467 408.0133L532.2751 407.938L532.6653 407.7672L532.3071 406.922ZM528.0978 406.1928L527.2988 405.549L527.0291 405.5338L526.7282 406.0911L526.7709 406.681L527.4891 407.3258L527.7797 407.2749L528.0978 406.1928ZM533.1744 406.2782L533.409 405.8602L533.3369 405.0212L532.819 404.5635L532.7412 404.0784L532.1092 403.6095L531.4612 403.5353L530.7633 403.8526L529.9628 404.0123L529.2614 403.8892L528.7221 404.1272L528.3174 404.9642L528.3918 405.4636L528.941 405.7127L529.8735 405.3446L530.409 405.9945L530.5924 406.4948L531.0131 406.7074L532.2538 406.6321L532.8365 407.1508L533.1752 406.9342L533.1744 406.2782ZM528.1302 402.8956L527.5566 403.1508L527.3163 403.7377L528.036 403.937L528.9044 403.4926L530.0451 403.579L530.8899 403.3817L531.4429 402.8996L530.9467 402.3942L529.3651 401.9477L528.8968 401.9579L528.1302 402.8956ZM531.0219 401.2215L531.0039 400.8513L530.2995 400.8869L529.1027 401.1035L529.0097 401.3253L529.9921 401.7717L530.6309 401.6914L531.0219 401.2215ZM531.3129 400.9601L531.2324 401.2561L531.7046 401.6426L531.3152 401.909L531.3769 402.2528L532.1645 403.0766L532.5871 403.0542L532.8895 402.7176L532.1916 400.8961L531.7313 400.6622L531.3129 400.9601ZM520.4314 401.0453L519.9092 400.6418L519.4122 401.3023L519.8373 401.9061L519.7453 402.5173L520.2594 402.669L520.9956 402.394L520.6956 401.4808L520.4314 401.0453ZM534.3666 400.4059L533.9399 400.2757L533.0829 400.5279L532.9532 400.8391L533.2087 401.3578L533.6862 401.5978L534.155 401.4666L534.3666 400.4059ZM527.4616 401.1737L526.8449 400.7944L526.6584 400.0723L526.0612 400.0906L525.7404 400.5198L526.2621 401.43L526.9731 401.8073L527.5894 401.6934L527.4616 401.1737ZM526.1409 399.0491L525.5005 398.8701L524.8255 398.8701L524.4666 399.2668L524.6748 399.7122L526.1218 399.8251L526.3655 399.7204L526.1409 399.0491ZM531.3476 398.9556L530.4216 398.6342L528.1576 398.6342L526.9075 398.921L526.8472 399.7733L527.3247 400.6581L528.0402 401.1422L529.7885 400.5116L530.5509 400.0509L531.8251 399.7702L531.3476 398.9556ZM523.3769 398.3596L522.9296 398.3596L522.986 399.2912L523.2877 399.5556L523.6527 399.4153L523.7957 398.5101L523.3769 398.3596ZM533.8487 399.5516L534.1592 399.102L533.9128 398.266L533.478 397.8053L532.5692 398.0097L532.2827 398.5254L532.3819 399.0624L532.1813 399.399L532.9814 400.3621L534.4902 399.9289L534.2736 399.5556L533.8487 399.5516ZM528.8461 397.249L527.9029 397.3385L527.2088 397.665L527.4322 398.266L529.2164 398.0921L528.8461 397.249ZM530.3239 397.3263L529.5543 397.491L529.4765 397.7738L529.9994 397.9955L530.7705 398.0219L531.1554 397.8897L531.0608 397.0863L530.5097 396.8056L530.3239 397.3263ZM526.9784 397.9324L526.7225 397.4117L527.3174 397.3344L528.5711 396.9378L528.2293 396.2564L527.79 396.0174L527.2351 396.2381L526.7225 396.9866L526.549 396.5849L525.9467 396.5269L525.528 397.0537L525.7568 397.6761L526.9784 397.9324ZM532.6332 396.3804L531.5726 395.8251L531.5604 396.6571L531.9082 396.9215L532.5627 396.7771L532.6332 396.3804ZM536.4498 398.443L536.031 398.6077L535.647 399.1264L536.2785 400.831L536.6721 400.9571L537.2263 400.5767L537.9891 400.9754L537.6424 401.2663L537.1527 400.9184L536.6607 401.2825L536.2145 401.3751L536.6126 401.9497L537.626 402.8447L538.6527 402.4928L539.5207 401.8206L540.3331 400.9408L541.1897 400.3621L541.5566 399.9716L541.6161 399.5516L540.9502 399.3644L540.9647 398.982L541.7843 399.0491L542.4231 398.2142L542.6481 397.6955L542.2007 396.9276L541.2316 396.5594L540.9174 396.7547L540.4704 396.0265L540.0158 395.6116L539.2492 395.9024L539.2419 396.474L538.6611 396.5411L538.4685 396.2096L538.0634 396.2065L537.7267 396.5605L537.5863 397.0608L537.7705 397.4971L538.7511 397.7992L538.5428 398.2253L537.8159 397.79L537.4055 397.8673L537.774 399.0868L537.2469 398.6718L536.7408 398.7847L536.4498 398.443ZM533.2255 396.4089L533.7213 396.3408L533.9036 395.4814L533.0428 395.6421L532.6332 395.876L533.2255 396.4089ZM530.3815 395.5282L529.8049 395.099L529.8975 395.8953L530.2591 396.1669L531.3285 396.4862L531.1252 395.4529L530.3815 395.5282ZM537.5714 395.9512L538.3781 395.7824L538.0611 395.1437L537.6161 394.9607L537.3163 395.1864L537.237 395.697L537.5714 395.9512ZM531.9235 395.2719L532.639 394.9647L532.4833 394.4257L532.0577 394.8L531.0097 394.6433L531.2946 395.2027L531.9235 395.2719ZM527.0379 394.2203L526.8197 394.6515L527.867 394.9647L527.8163 394.324L527.0379 394.2203ZM533.0814 394.4094L533.2671 394.8813L533.7907 394.4094L533.4891 394.1196L533.0814 394.4094ZM529.6428 393.9396L529.777 394.6261L530.2538 395.101L530.5741 394.3118L531.1653 394.1135L530.3209 393.1249L530.1958 393.4717L529.626 393.4605L529.6428 393.9396ZM528.0657 392.9591L527.3079 392.9164L527.4994 393.4697L528.1653 393.308L528.0657 392.9591ZM531.7602 392.5757L531.105 392.4059L530.5097 392.8818L531.1081 393.4249L531.8769 393.5531L532.2019 393.3843L531.7602 392.5757ZM533.052 390.5162L532.9582 390.9129L533.2488 391.7275L533.6287 391.9767L533.7976 392.7191L534.0978 392.6439L534.3152 392.1608L533.8907 391.5638L533.9422 390.9891L533.4559 390.4023L533.052 390.5162ZM537.8983 391.2454L538.4101 391.4163L538.7152 389.8918L538.5383 389.6161L537.9959 389.6985L537.4795 390.0891L537.3495 390.4735L537.4559 391.0227L537.8983 391.2454ZM529.3126 388.9416L529.1023 389.5093L529.8758 389.8724L530.3628 389.7595L530.7019 390.3057L531.4181 389.7921L532.8895 389.7087L532.5989 388.9602L531.9235 388.4638L530.9678 388.9576L530.2377 388.5485L529.3126 388.9416ZM522.9929 386.5355L523.3937 387.0305L524.3562 386.5901L525.2401 386.5434L525.2004 386.0689L524.5857 385.523L523.7454 385.2252L523.6798 385.6718L522.9288 385.6281L522.9929 386.5355ZM524.5706 438.5584L524.2022 438.7602L524.215 439.3669L524.6254 440.1251L525.0944 439.3913L525.744 439.4408L525.7299 438.7474L524.5706 438.5584ZM518.2599 424.6532L519.7724 425.8591L520.1471 425.4273L519.9184 424.8022L519.2351 424.5196L518.2599 424.6532Z" fill="rgb(0,0,0)" fill-opacity="0" stroke="#666" stroke-width="0.5" class="zr0-cls-0"></path>
<path d="M538.4371 456.7186L530.0363 450.3586L528.782 450.0738L527.7854 450.4582L527.176 450.0738L526.5886 450.9342L526.4113 451.4712L526.7225 451.8739L526.5474 452.1343L526.9075 453.2683L526.3377 453.8297L526.3255 454.4124L526.7866 455.045L526.9006 455.5536L526.7934 456.3184L526.9731 457.551L526.6863 458.2223L526.9605 458.747L527.5017 459.0196L527.7843 459.5444L528.4017 460.1811L528.6473 460.1211L528.9624 458.5162L529.1344 458.1734L529.2942 456.9306L529.1298 456.4587L529.6641 456.3489L530.3239 455.3949L530.2538 454.5803L530.0615 454.1073L530.375 453.8694L531.7 453.6761L531.6035 453.9365L530.8716 454.0504L530.2538 454.6199L530.684 455.1447L530.8686 455.7224L530.5795 456.4109L530.8014 456.9998L531.3689 457.5978L531.0036 457.7046L530.5795 457.0161L529.8758 457.0588L529.5039 458.865L529.6081 459.459L529.9334 459.8465L531.4559 459.9634L531.7892 460.1882L531.798 460.9337L532.044 461.7473L532.7923 461.9385L533.2454 462.4887L533.5875 462.5853L533.3613 463.1508L532.4536 462.1867L531.6676 461.8104L531.3476 460.7008L530.1573 460.3235L528.4696 460.657L527.8163 461.1279L527.6412 461.488L527.6973 462.5752L528.3285 462.6779L530.0615 462.5009L529.7885 462.9342L528.814 462.9433L527.8747 463.5251L527.3975 463.4824L527.6184 464.4709L527.9536 464.7496L528.8945 464.8076L529.2942 464.9754L529.6264 465.5144L530.3247 465.6405L531.0913 466.4063L530.203 466.5436L529.6081 466.1002L529.2591 466.2233L528.8049 465.5836L528.1653 465.2378L527.6824 465.1971L527.2419 465.4697L527.2419 465.9599L527.8457 466.8213L528.3117 467.0928L528.8461 468.4109L529.1706 468.6092L530.4322 468.5909L530.8937 469.2652L531.8167 469.5113L531.5428 469.8063L531.0501 469.6771L529.7579 468.9276L528.7015 468.714L528.1157 468.1811L527.9444 467.7214L527.4033 467.1569L526.3472 467.3105L525.2843 467.3217L524.7728 467.5169L524.1821 468.1872L524.2599 468.6977L524.9593 468.7628L525.1081 469.0842L526.0406 469.3486L525.6344 469.7839L526.2049 470.3819L526.9708 470.6535L527.3358 470.5741L527.7522 469.3964L528.1325 469.5886L528.1973 470.0433L527.6504 470.8854L527.9673 471.4112L528.5177 471.1478L529.4536 471.3664L529.8964 471.9075L530.5756 471.7712L530.507 472.3631L530.1607 472.6072L529.6527 472.1841L529.2576 472.118L529.3369 473.3262L528.7122 471.8749L527.8747 472.0875L528.2374 472.7638L528.7991 473.0669L528.4502 473.6314L529.0959 474.6636L530.0219 475.28L529.4799 475.6095L530.2614 476.354L531.1584 476.4506L531.8716 475.9492L532.4353 475.3532L532.2972 474.5721L532.552 474.1439L532.5345 473.5876L532.7614 473.2906L532.917 472.5258L533.494 472.5147L533.2385 473.073L534.0795 473.8093L534.7862 473.9334L534.8785 474.2365L535.4689 474.3301L534.7751 474.8365L534.4891 474.3148L534.0669 474.0778L533.1416 474.2589L532.6973 474.6636L532.8003 475.5597L532.6332 476.0356L532.0245 476.0448L531.814 476.6021L532.3773 477.0537L532.6332 477.5724L532.5051 478.085L531.9936 477.7432L531.8403 477.192L531.3476 476.8828L531.1142 477.2428L529.6779 476.9682L528.8289 477.1411L528.2583 477.8205L528.4181 478.9271L528.9372 479.0023L529.7042 478.1348L529.9334 478.4267L529.274 479.2301L529.4002 479.7397L529.4479 480.9235L530.1554 481.2317L530.9685 481.0038L531.4681 481.4717L531.9936 481.4269L532.8895 480.3957L532.9151 481.015L532.6836 481.372L533.3079 482.1836L533.2904 483.0338L533.7633 484.06L533.5875 484.7628L532.7168 483.9899L532.4048 483.4793L531.2774 483.5688L531.5398 484.5614L531.5123 485.1635L532.3773 485.2835L531.5596 486.2233L532.6847 486.6382L532.4239 487.1833L532.8853 487.5149L533.2965 488.2736L533.6573 488.1912L533.8968 487.1833L534.3018 487.5759L534.6001 488.1841L535.1348 488.6184L535.0612 489.0099L535.4136 489.2622L535.0943 489.7656L534.4177 488.8594L533.9448 488.9245L534.3033 490.2548L534.6649 490.8711L534.5863 491.3491L534.9731 491.7661L536.1035 492.3356L536.338 492.7557L537.0707 493.1513L537.3861 492.8564L537.1481 491.3512L537.1157 490.5467L536.8357 487.9848L537.2255 488.9754L537.1943 489.8205L537.5207 490.7247L537.4795 491.5708L537.938 492.2187L538.3788 492.0905L538.4101 491.3573L538.6725 490.326L539.4597 490.027L540.79 489.3079L540.5898 488.9225L539.568 488.9672L539.5734 488.3L539.7846 487.877L539.3781 487.6329L538.1645 487.582L537.8506 487.2952L538.3026 486.9515L538.6214 487.3644L539.3766 487.2454L540.1439 487.5942L540.2534 488.1912L540.8838 488.0478L541.6306 488.176L542.0379 488.7109L542.6206 489.0527L543.4849 488.896L543.9898 488.5258L544.2377 488.0458L544.1344 487.6359L542.819 487.3013L542.3037 486.3697L541.9673 486.028L541.3655 486.0432L540.5627 485.6161L539.5257 484.8594L538.7168 484.6713L537.9059 484.9255L537.7339 484.3895L538.7305 484.1648L539.182 483.8373L539.5329 484.6703L540.3209 484.8076L540.7259 485.3598L541.6512 485.7086L542.7293 485.8541L543.1309 486.1785L543.4513 486.7643L544.1287 487.3603L544.5146 487.4895L545.031 488.4475L544.6428 489.0394L544.7389 489.5022L545.1592 489.9914L544.449 490.5101L543.4833 490.4175L543.1309 490.5884L543.2332 491.5281L544.9494 493.4178L545.0062 493.8673L544.748 495.0165L543.4833 496.1577L542.4158 496.2207L541.5398 496.5421L541.8777 495.9014L542.4711 495.761L542.8781 495.4284L543.7679 495.3156L544.0257 494.9393L544.3788 493.5195L543.6466 492.3417L542.814 491.8292L542.8861 490.8426L541.883 490.2934L541.2476 490.6779L541.0234 491.7885L540.5005 491.8831L540.528 493.1554L540.9021 493.4503L541.3975 493.3059L541.4353 492.6448L541.9212 492.6957L541.528 494.0829L540.8518 494.1348L540.766 493.7493L540.0859 493.4117L539.343 493.5215L539.6515 492.9357L540.1523 492.8625L540.1504 491.941L539.2202 492.1058L538.6721 492.6448L538.0085 492.6387L537.9559 493.3232L537.4891 493.7758L536.9055 493.8083L535.9883 492.9876L535.0776 493.5195L534.5856 492.7547L534.047 492.3031L533.4833 491.404L533.052 491.8922L534.0051 493.1208L534.105 493.4971L534.5932 493.6802L534.2923 494.5426L534.7579 495.1101L534.5123 495.8129L533.846 495.8729L533.7907 496.3743L535.0585 496.7862L534.2682 497.6161L534.0749 498.1134L533.5875 498.5467L533.8487 499.4935L533.478 500.0051L534.1477 500.3885L534.8052 499.64L535.8197 499.0135L536.3106 499.0298L536.6374 498.4246L537.0486 499.3583L537.5142 499.4935L537.7961 498.8243L538.5383 498.1205L538.1252 497.071L538.8853 497.2347L539.512 496.9672L540.9174 497.2744L540.7019 497.492L539.9517 497.2744L539.1759 497.2469L538.9288 497.7341L538.6035 498.9982L537.9166 499.1905L537.6973 499.8719L537.1248 500.3438L537.2583 500.8665L536.4338 501.1208L536.3209 500.8564L534.965 500.8238L535.4227 501.3934L536.4483 501.6334L536.7408 502.147L537.3285 502.3494L538.0303 502.1704L537.7366 502.9637L537.0928 502.7511L536.3563 503.3481L536.4147 503.7824L536.9673 504.4658L538.9448 504.7842L539.9364 504.2756L540.4696 503.8678L540.3415 503.0532L540.4696 502.2395L539.9654 501.7717L539.9853 501.489L540.5978 501.0364L541.343 500.9337L541.4864 500.5655L541.9952 500.4821L543.0325 499.3552L542.8914 498.9748L541.9212 498.7664L541.7293 498.4053L540.9296 498.9443L541.4559 497.3598L542.102 497.8724L543.2579 497.5947L544.0653 498.0351L544.2606 498.4684L545.5306 499.1844L546.3354 497.6385L546.7686 497.4971L547.5032 497.6161L548.5901 497.5856L548.96 498.0416L549.6388 498.0846L550.24 497.8485L551.6583 498.1789L552.3431 498.1125L552.8653 498.2538L553.423 498.0898L554.171 498.7308L554.2995 499.1504L553.2975 499.3285L552.881 499.6208L550.8087 499.7574L550.1547 499.5938L549.7423 499.1938L549.2717 499.4827L548.6799 499.2438L547.8999 499.2251L547.5463 499.7397L546.8869 499.8342L546.473 500.4628L545.6767 500.8665L545.473 501.549L544.965 501.1533L544.1378 501.494L543.5257 501.3598L543.6756 500.3468L542.814 499.9197L542.2614 500.6957L541.5909 500.9113L541.1767 501.2367L540.4063 501.3852L540.3289 501.7137L540.7473 502.1531L540.5253 502.6524L540.8106 503.4406L540.7244 503.88L541.0562 504.2828L540.6557 504.8818L541.4868 505.4493L541.8777 505.0547L542.4593 505.0547L542.0772 505.967L542.356 506.5985L540.8186 505.9598L540.2133 505.5754L539.2396 505.6934L538.7305 505.9171L537.6718 505.8744L538.1687 506.5823L539.3003 507.1518L541.1847 508.3458L542.4593 508.5777L542.6458 509.3527L543.2476 509.4666L543.6267 509.9141L544.51 510.3758L545.9906 510.2822L544.8762 508.6855L543.867 508.4068L544.5131 508.1505L544.6767 507.8678L544.5623 506.8457L545.031 507.1111L545.5428 506.7775L545.3277 506.2772L546.3369 506.3382L546.7968 506.1002L547.4742 506.086L547.2789 505.4493L546.393 505.2235L545.8457 504.2024L546.5253 504.4292L546.727 503.9461L547.4917 504.2614L547.9486 504.9052L548.6054 505.252L549.2789 505.0547L550.2866 503.7088L551.4848 503.1561L551.8843 502.8487L553.8055 501.9062L554.2446 501.3842L555.0444 501.4696L555.4804 501.1621L556.4451 500.9327L557.194 501.2334L557.6513 502.0766L557.6675 502.5683L556.9194 502.6217L556.5794 503.0206L556.3987 503.7824L555.7846 504.6743L555.1916 505.1523L554.4025 505.2337L553.3003 505.6588L552.9601 505.9944L551.822 506.3646L551.5337 507.5627L551.6573 509.4747L551.1492 510.0799L550.3598 510.2049L549.7568 510.5741L549.4658 510.0992L550.7694 509.6252L551.2534 509.2815L551.3907 508.8096L551.1828 508.3133L550.9547 506.7226L550.761 506.389L550.2168 506.4887L549.5863 506.3504L549.2042 506.6636L549.3659 507.9502L549.266 508.4841L548.5406 508.8543L547.8266 508.716L548.1355 508.2126L548.6832 507.9502L548.4963 506.9189L546.7618 506.6067L545.7351 507.3735L545.4387 507.7193L545.5978 508.0915L545.1592 508.6631L545.6767 509.5581L546.6245 510.4612L546.745 510.8365L547.655 511.401L548.3354 512.121L548.9067 512.4078L549.4795 512.0509L549.9418 512.6255L550.6717 512.7353L552.7385 513.8663L554.2831 513.9375L555.6309 514.565L556.6367 514.504L558.4597 513.6924L559.028 513.0211L558.973 512.0621L559.2904 511.5566L559.3483 510.9738L558.941 509.4178L558.8487 508.359L559.1206 507.6563L559.1782 506.3575L559.3544 505.7829L559.8388 504.9957L560.0356 504.1943L560.4971 503.4783L560.5573 502.6626L560.2687 502.3658L560.5417 501.3405L561.1458 501.0364L560.6012 500.4201L561.3727 499.877L561.4388 500.2867L562.2189 499.9283L562.6889 499.4736L563.301 500.1141L564.559 499.4659L565.1376 499.0505L565.8842 499.066L566.7292 498.4051L567.3719 498.2641L568.6628 497.7126L569.5917 497.1558L570.2175 497.6066L571.2248 497.7096L572.2637 496.7475L572.4154 496.0661L572.8689 495.8912L573.0043 494.7053L573.3838 494.2263L574.2816 494.1318L575.3268 493.6141L576.3071 493.6761L577.4505 494.4155L578.4784 494.8688L579.5711 494.9908L580.219 494.9109L581.5996 495.3361L582.6949 495.4071L582.6397 494.8234L581.0723 494.37L579.2092 494.1143L577.4558 493.3135L575.5372 492.7994L572.9781 492.731L568.5966 491.1681L561.4975 491.0841L555.1569 491.0092L550.1791 490.9511L549.7335 490.7083L549.8905 489.7757L549.797 489.4257L548.727 488.3084L547.6542 487.5851L546.7726 487.3448L546.4631 486.9703L546.3822 486.2792L546.1129 485.8698L545.3854 485.7768L545.1892 485.4849L546.1158 484.5265L546.375 483.4622L546.4699 482.3023L546.9935 481.4602L545.8252 480.5851L545.691 479.7287L546.234 479.0403L546.6573 478.9434L546.915 478.0871L546.9383 476.5319L546.2384 475.5864L546.2117 475.0181L546.5692 474.1902L545.8145 473.8324L544.6652 473.5947L544.2607 473.7678L543.6141 474.4136L543.197 474.4266L542.5325 473.8828L542.1116 473.8247L540.9452 474.4111L539.9402 475.2842L539.1342 475.7117L538.3689 475.447L538.2328 474.0959L537.5804 473.0368L537.4646 470.6356L537.0079 469.4344L535.0617 467.8405L535.053 467.1198L535.5286 466.3642L535.3463 465.8139L534.6664 465.2353L534.9551 464.7626L535.0249 464.1761L535.5159 463.7279L535.6754 463.0808L534.9779 462.24L535.1777 461.4379L534.5366 460.207L534.9491 459.72L534.8689 459.1323L535.704 458.2695L535.7432 457.4287L538.6755 457.3783L539.1139 456.9921L538.4371 456.7186ZM580.8823 526.0575L580.8833 525.8551L580.9168 519.1513L580.9502 512.4568L580.9832 505.761L581.0171 499.0683L579.9078 498.0351L578.2704 499.0758L577.3369 499.2006L576.6969 499.5779L576.2122 499.6207L575.409 499.0643L574.0197 496.9527L573.6129 496.7176L572.0539 497.4473L571.6817 498.0778L571.9872 499.0971L570.6436 500.754L569.7996 500.8548L568.9842 501.6719L568.1431 501.5948L567.0799 500.5314L566.9482 500.2269L565.5787 500.2685L564.2534 500.5492L565.5043 501.0538L565.743 501.9267L566.2339 501.9019L567.1187 502.1704L567.3179 502.4612L566.8956 503.722L565.8718 504.3441L565.1174 504.3417L564.9395 503.6512L564.2265 503.7191L564.0278 504.8982L564.0786 505.6803L563.8179 506.3303L563.7152 507.4376L564.0058 508.1027L564.9227 508.4689L565.7476 509.3344L566.2537 509.43L567.0623 509.0028L567.9512 509.0256L568.6196 508.5645L569.9817 508.3521L571.1955 508.0512L574.2213 508.0183L574.5404 509.203L574.4898 509.7248L574.1445 510.0922L571.4208 511.5239L569.9649 511.8894L569.2852 511.7945L566.8701 512.8045L566.5119 513.0771L566.417 513.7117L566.7751 515.0989L567.1847 515.6888L567.6218 517.1574L569.2442 518.0859L571.7453 518.8477L572.4772 519.2393L574.9059 520.0885L575.917 520.8492L576.6702 520.9611L577.6298 521.4615L577.5741 521.9242L576.6069 521.6588L575.8876 522.0188L576.0508 523.0501L575.2064 522.6372L574.8289 522.8813L574.4181 523.5647L574.1035 523.0745L575.4021 522.031L575.2774 521.5856L574.8289 521.4147L572.8357 520.3468L572.4315 520.3346L572.0081 521.0811L571.0417 520.0417L569.4742 519.5739L569.2602 519.9776L569.9532 520.8736L569.8826 521.3333L570.3956 521.7646L569.7953 521.9232L569.2442 522.3605L569.3266 521.3313L568.9822 520.8167L568.3979 520.3855L568.4067 519.7854L568.1531 519.4742L567.4696 519.1793L566.8426 519.7773L566.2881 520.0763L566.6 520.4353L567.2545 520.5604L567.3472 520.8594L566.3529 521.0811L565.8483 520.534L565.1309 520.1353L563.0882 519.2759L559.4116 517.489L559.6908 518.0178L560.0127 519.1467L560.5878 519.4376L561.986 519.3705L562.7389 519.5047L563.3704 520.0804L563.3392 520.5604L563.8506 520.8594L564.1454 521.5398L565.7869 522.1449L565.5669 522.7236L564.0318 522.0493L562.6687 520.9509L562.0478 521.4147L561.6214 522.2538L561.5817 522.7368L560.8983 522.8701L561.4841 522.0778L561.338 521.4147L562.4318 520.3041L561.9238 520.1312L561.3598 520.4048L560.9235 520.0631L560.0897 520.0417L559.4433 520.3712L559.3979 521.2683L558.679 521.6771L557.0066 521.4249L555.3632 520.7313L554.7229 521.0811L555.5482 521.2896L555.6328 521.551L553.9627 521.491L553.6801 521.612L554.1389 522.2405L553.0177 522.3361L551.9852 521.1371L551.544 520.9876L550.8804 521.3079L550.9948 521.9314L552.0634 521.852L552.6168 522.4887L551.7679 522.4541L552.1641 523.1803L550.8159 522.7958L550.6653 522.3361L550.1439 521.8724L549.5009 522.0514L549.97 522.4541L549.5863 522.7104L549.3941 523.2149L550.4238 523.3084L549.5863 523.7335L549.7648 524.1576L551.0699 524.2543L551.1275 523.819L551.7091 523.4773L552.3354 523.64L552.4483 524.2065L553.2354 524.0529L554.3064 524.5238L554.6298 523.9898L554.9852 524.0753L555.0287 523.0196L556.2934 523.1762L556.3834 523.7417L556.0657 524.5238L556.5909 524.5085L557.256 524.7953L557.798 524.0356L558.3117 524.2858L558.7431 523.819L558.7724 525.013L558.3815 525.3954L558.6832 525.7005L559.2476 525.0852L559.1561 524.6814L559.8663 524.5879L559.4627 525.2957L560.5062 525.4483L561.1962 525.0577L561.5993 525.192L562.6931 524.6814L562.2396 524.415L563.0634 523.8617L563.5512 523.7417L563.909 523.9898L563.0402 524.7892L562.2995 525.2123L560.8457 525.5703L560.3083 525.9141L560.4216 526.3361L561.0417 526.5751L562.4315 525.8266L565.9067 526.7908L566.6084 526.6423L567.1206 526.208L567.4032 526.6911L568.2167 526.506L568.6161 526.0198L568.9822 526.3005L569.6332 526.3311L570.076 525.9141L571.2053 526.1276L572.7846 526.8365L574.8769 527.3064L576.3071 527.8444L576.8987 527.9278L579.5138 527.5698L579.9837 527.2688L578.8334 526.506L579.9654 526.6565L580.7685 527.1457L580.8823 526.0575ZM593.9753 539.0603L592.912 538.6962L593.1004 539.3766L594.1721 539.7844L593.9753 539.0603ZM595.3887 538.8914L594.8014 538.985L594.727 539.5606L595.322 540L595.5943 539.8515L595.3887 538.8914ZM591.571 538.8284L590.8036 539.0715L590.1051 538.851L589.121 538.8859L588.7682 538.7206L587.7063 539.0222L588.0499 539.6304L589.4108 539.2436L590.3487 539.3075L590.2666 539.9913L591.1751 539.688L591.2904 539.0755L591.571 538.8284ZM592.7476 537.9517L593.0729 538.4643L593.7911 538.2873L593.7427 537.5184L592.8815 537.3933L593.0371 536.4831L592.9067 535.7396L592.3376 535.9044L592.2156 536.3631L592.4913 536.6641L592.4597 537.3079L591.5314 536.7414L591.2202 536.8167L591.1004 537.7605L591.8083 537.8459L592.0966 538.0981L592.7476 537.9517ZM590.2446 534.7826L589.7 534.9779L589.8632 535.4681L589.3498 536.2766L590.0768 536.1739L590.7865 535.4925L590.2446 534.7826ZM570.8296 532.8787L570.0119 532.7241L570.2682 533.3221L570.9399 533.6781L571.5245 533.2794L570.8296 532.8787ZM597.6286 531.9563L597.4433 531.4528L596.3453 531.4254L595.5749 532.0417L595.7087 532.6458L597.2446 532.7241L597.7762 532.3478L597.6286 531.9563ZM601.6458 530.8853L600.6328 530.6016L599.7202 531.1416L599.6183 531.8708L600.3094 532.0875L600.9215 531.7915L601.6458 530.8853ZM597.5005 528.8686L595.8319 528.4567L595.6519 528.8441L596.949 529.3506L597.6626 529.8998L597.8571 529.3455L597.5005 528.8686ZM586.9067 536.4099L587.0909 536.0356L586.5207 535.7996L585.9494 535.1609L586.2919 534.6168L586.1618 534.3453L585.4299 534.447L585.5268 533.6212L584.6542 533.5479L583.663 532.8665L582.7007 532.6458L582.089 532.7262L580.9788 532.6489L581.1183 532.3905L582.2125 532.4597L582.8548 532.298L584.658 532.2197L584.9387 531.8525L583.8174 531.5291L583.3087 530.8731L581.613 530.9667L581.1935 530.7592L579.5268 530.6321L578.0096 529.9537L577.5924 529.2174L578.5527 529.552L579.1584 530.0066L579.838 530.2416L581.1252 530.4704L581.9265 529.9395L582.8575 529.552L583.7614 529.3476L583.6595 528.5482L582.7648 527.8139L582.0859 527.6786L581.5077 527.8444L580.0062 527.938L579.0791 528.3366L577.4002 528.357L576.6267 528.4506L574.5306 528.4841L573.5291 528.9591L572.5817 528.9672L571.4318 529.2133L569.2225 529.3618L568.645 529.6557L567.8586 530.4826L568.5325 530.5894L569.5371 531.2606L569.5779 531.7905L570.8071 531.6135L571.2392 531.9939L570.6878 532.2054L571.1641 532.6458L571.7137 532.6855L571.8312 533.135L572.8022 533.3221L573.2945 533.6771L573.4299 534.7074L573.7465 534.6667L573.9067 533.6273L574.2534 533.6639L574.2797 534.4063L574.7206 534.6951L575.4048 534.4389L575.5943 534.0381L574.7251 533.7381L575.2453 533.3649L573.8449 532.1587L573.2934 531.9563L574.9761 531.2352L574.5184 530.3117L575.1858 530.3707L575.5329 531.2728L575.9814 531.5932L577.1782 531.8454L577.8163 531.8281L578.4246 531.3511L578.8781 531.7854L578.494 532.2197L578.4841 532.6641L577.9906 533.3303L579.5325 532.716L579.1393 533.4076L578.4246 533.4076L577.8327 533.9405L578.7888 534.8823L579.6984 534.7236L580.0432 534.3778L581.2522 534.3453L582.9158 534.864L583.5852 534.507L583.8159 534.8558L584.5329 535.1223L584.2396 535.9349L584.3926 536.2888L585.4627 536.0193L585.552 536.9774L586.2293 537.5184L587.0348 537.0058L586.5871 536.835L586.9067 536.4099ZM587.9948 531.6145L588.7682 531.8708L590.2049 531.8352L590.5665 530.925L591.5588 530.7185L592.1111 530.8457L592.3056 531.2728L591.9925 531.9014L592.3987 532.2258L593.7362 532.4027L594.1584 532.2054L595.4433 530.9484L595.7865 530.1124L595.6927 529.4676L594.5565 528.1678L593.4437 527.6786L591.944 527.5932L590.182 527.581L589.4848 527.7569L588.7202 527.4895L587.4452 527.3857L584.917 527.4172L584.5108 527.6166L583.6633 527.581L583.5543 527.9847L583.8174 528.4506L584.4353 528.5085L585.153 528.2949L585.3632 529.253L585.1366 529.8724L585.3598 530.3972L585.8128 530.7541L585.4292 531.0175L586.1324 531.4803L587.0348 531.3613L587.973 530.804L588.1866 531.0959L587.9948 531.6145ZM565.3872 529.5978L565.5505 529.1737L565.2534 528.9164L564.3285 529.2174L563.8006 529.1564L563.0714 528.8045L562.0478 528.954L561.3129 528.7343L561.4078 528.357L562.56 528.6123L563.3765 528.42L563.4162 527.9522L565.195 527.4172L564.8689 527.2393L563.5417 527.3176L562.4318 527.8444L562.1058 528.179L561.5352 528.179L560.6977 527.7447L560.6977 528.2716L559.6675 527.9227L558.9006 527.9227L558.864 528.9875L559.6039 529.552L560.1225 529.2988L561.1458 529.8144L561.4444 530.1022L562.2453 529.5276L562.6237 529.4818L563.3392 529.8998L562.8212 530.5436L563.973 530.7541L564.4273 529.8998L564.9814 530.1734L565.6489 529.9781L565.3872 529.5978ZM569.052 528.5268L568.9242 529.0465L569.4456 529.0547L569.8781 528.776L570.2492 528.9998L571.5535 528.8686L571.9845 528.6173L572.8529 528.6397L574.4158 528.3133L575.5733 528.1943L575.3247 527.7163L574.7068 527.6735L573.5302 527.3125L572.8998 527.8444L572.7114 527.2393L571.2331 526.8986L570.2682 527.0613L570.9425 527.7091L570.4887 527.7935L569.6878 526.9708L568.8258 527.2881L569.0089 527.6359L568.6191 527.9786L569.052 528.5268ZM564.2003 526.6423L562.4635 526.4714L561.6717 527.0165L561.7938 527.2952L562.7091 527.2911L563.3975 527.0613L564.3952 526.984L564.2003 526.6423ZM558.9326 527.6735L559.2667 527.1538L558.7228 526.7887L558.0508 527.0694L557.3952 526.568L555.7526 526.5497L555.4273 526.3819L554.473 527.0613L554.9147 527.7946L555.7984 527.8373L556.1367 526.9413L556.814 526.9169L556.8609 527.3979L558.1782 527.938L558.9326 527.6735ZM549.9059 524.8502L549.2255 523.9807L549.0303 524.1993L549.4872 524.8045L549.3171 525.2916L550.0978 525.2774L549.9059 524.8502ZM546.2225 520.2126L545.5939 519.8953L545.211 520.2594L544.4139 520.6072L544.9296 521.3578L545.3285 520.7841L546.0257 520.8167L546.2225 520.2126ZM564.5489 518.4206L563.8849 517.9893L563.2694 518.2497L563.8506 519.0186L564.9692 519.3918L565.6283 519.4579L566.0325 518.7623L565.2179 518.3778L564.5489 518.4206ZM546.6245 517.0547L545.7229 517.251L546.3106 517.8236L545.9536 518.1653L545.2831 518.211L544.5772 518.5985L544.7053 519.104L545.4101 519.2525L545.8598 518.867L546.5817 519.2118L546.6702 518.5426L547.0585 518.5385L547.1607 517.4706L546.6245 517.0547ZM538.3468 516.9692L538.274 516.7404L537.4574 516.4231L536.6767 516.3651L535.7915 517.0476L536.8724 516.893L537.0974 517.5846L538.3621 517.6598L538.3468 516.9692ZM552.867 517.0547L553.1912 517.1676L552.3033 517.9212L552.2213 518.147L552.674 518.9698L554.0955 518.7074L554.1637 517.7595L554.7305 517.7503L555.0402 518.1215L554.6008 518.386L555.208 519.1477L556.4971 519.1915L555.5234 519.9339L556.0142 520.0417L556.8357 520.6845L557.7133 520.8167L558.4605 519.6898L558.8731 519.3918L558.8117 518.2517L558.5802 517.9202L558.6634 517.3303L558.1264 516.8838L557.7267 516.9509L557.4864 517.8693L556.7701 517.9456L556.1325 517.255L556.3331 516.9987L555.9547 515.9634L555.2598 515.6847L555.2255 516.5848L554.8571 516.6204L554.4383 515.34L554.0863 515.9085L553.5848 515.343L552.867 515.5108L552.6222 515.8597L552.867 517.0547ZM549.266 518.5985L549.7957 518.6321L549.9994 519.1426L549.6832 520.1353L550.7442 520.0417L550.9997 519.7854L550.9357 519.1874L551.6397 519.3583L551.684 518.8152L551.298 518.685L550.9357 518.0859L550.1996 517.5296L549.8548 516.2563L551.2065 517.9212L551.6 518.1195L552.0936 517.9161L552.5886 517.3669L552.044 517.1411L551.7793 516.5696L552.2007 516.4536L552.0955 515.6786L552.6611 515.1498L551.9639 514.803L550.9997 515.0776L550.3087 514.3422L549.9166 514.2304L549.1027 515.1233L548.8007 515.8647L548.2076 515.2474L547.2332 515.1335L546.9879 515.3837L547.5047 516.1343L547.2705 516.7994L547.8232 517.3537L548.3079 516.8177L548.5943 517.2683L548.3701 517.9934L549.266 518.5985ZM563.8887 511.216L563.7528 510.6501L563.134 510.5772L562.8444 511.3967L561.9332 512.1409L561.4719 512.3387L561.5993 513.4106L562.5248 513.9349L562.4726 514.3844L560.8749 513.879L559.8914 514.0987L559.7129 514.4917L560.0577 515.0776L559.7431 515.4193L559.8663 516.4078L560.5947 517.2693L560.4421 517.489L561.7274 518.4206L563.0882 518.8396L563.1355 518.0402L562.6931 517.311L562.8212 516.8838L561.8632 515.6664L562.4315 515.4254L563.5079 516.4853L564.0366 516.825L564.5473 516.6994L565.0018 516.1625L563.9151 514.6565L564.2197 514.4607L564.2017 513.6021L563.9795 513.1062L563.7188 511.8877L563.8887 511.216ZM532.3071 509.4727L532.2236 509.8937L531.671 510.15L532.0337 510.6413L532.6332 510.7175L532.7282 510.3107L533.3178 510.3392L533.1904 509.8175L532.3071 509.4727ZM536.3563 508.7465L535.8312 508.4658L534.8167 508.6285L534.4292 508.4801L534.4727 509.6964L533.5566 509.4117L532.8552 508.8899L532.711 509.2123L533.4017 509.5154L533.9448 510.028L534.8563 510.327L535.5188 510.7175L536.3563 510.2049L535.4605 509.2164L536.3563 508.7465ZM544.4433 517.012L544.56 516.0081L545.0131 516.0173L545.1504 516.5482L546.3155 516.5024L546.3746 515.938L545.7976 515.8332L546.1828 514.9464L546.1187 514.3158L546.3289 514.0656L547.0562 514.5395L547.655 513.2774L546.8464 513.0608L547.2122 512.6804L545.745 512.3133L544.957 512.2878L544.8647 511.9959L545.684 511.4895L544.8964 510.7175L544.4071 510.9637L543.2602 510.2812L543.4612 511.0409L543.4982 511.82L542.883 511.7834L543.0722 511.3522L542.9311 510.8762L542.3952 510.3758L542.5234 510.028L542.0886 509.609L541.3323 509.4523L541.7694 510.3117L541.4574 511.2525L540.8693 511.4722L541.2293 510.2568L540.867 509.9446L540.6424 509.0181L539.729 508.4506L538.5207 508.714L538.7702 509.076L538.8003 509.6863L537.9444 509.7452L536.404 509.3486L536.1653 509.7371L536.848 510.4206L537.5783 510.5467L537.3049 511.1447L537.6103 511.5108L538.5531 511.6725L539.2774 511.5322L540.2789 511.9441L538.1206 511.8983L537.2187 511.5017L536.8827 510.9331L536.0951 510.6321L535.5093 510.9209L534.5543 510.8558L534.2602 511.7163L534.7545 511.9197L535.3792 511.8831L535.4902 512.3316L535.028 512.9723L536.6374 512.4872L537.6649 513.3964L537.1317 513.8744L537.3361 514.565L537.7007 514.6504L537.5535 515.221L536.8689 515.5108L537.4628 515.8708L538.1218 515.938L539.2557 516.4689L539.6218 516.059L539.1737 515.461L539.0817 514.9504L539.4116 513.9619L539.83 513.8744L540.9982 514.4114L541.7568 513.8327L542.4429 514.7409L541.5329 515.5749L542.134 515.7671L541.8365 516.1424L540.6557 516.7994L540.9967 517.5846L541.7496 517.6527L542.0379 517.2255L542.5875 517.311L543.2332 516.713L544.0242 517.2632L544.4433 517.012ZM529.2942 506.6067L528.5657 507.0847L528.552 507.6298L529.5734 507.4142L529.6779 506.9484L529.2942 506.6067ZM535.9723 501.8907L534.8575 501.7381L534.301 501.3445L533.0219 501.9385L533.7236 502.2395L534.105 502.0677L535.33 502.147L535.4547 502.7511L536.2583 502.9779L536.4231 502.2934L535.9723 501.8907ZM538.0905 507.5444L538.2122 507.3735L537.3518 506.863L535.9563 505.3252L535.5188 505.2337L535.3266 505.9171L535.647 506.3504L535.036 506.684L534.6172 505.9171L534.9242 505.5205L534.8686 505.0526L534.4307 504.5584L533.8487 504.295L534.1401 505.4045L533.2034 504.4658L532.4033 504.3407L531.8251 503.6125L531.2408 503.5251L530.5886 503.1549L529.8758 503.0928L529.3216 503.4437L528.9971 502.8792L528.3285 503.0928L527.5978 502.624L527.2988 502.922L526.8449 502.4948L527.1847 501.9812L526.594 501.9324L525.9486 501.3852L526.0768 501.0364L525.0524 500.6957L524.3403 500.0895L523.6332 500.5177L524.0211 500.893L524.9563 501.3405L525.3083 501.7198L525.0703 502.6097L525.8152 502.8792L525.9814 503.1732L526.6779 503.2454L526.8449 503.9461L527.6161 504.1851L527.6779 504.7892L528.2004 504.713L528.6031 504.1617L529.0707 504.6947L529.8529 504.8838L531.2194 504.5584L531.7824 504.2939L532.2145 504.9357L532.819 504.9357L532.9006 505.4554L533.8991 506.1551L534.3552 506.2111L534.6172 506.9484L534.3918 507.4345L534.7892 507.6176L535.7419 507.5718L536.0951 507.1111L536.5184 507.6268L537.0608 507.9797L537.8701 508.1729L538.7251 507.6695L538.0905 507.5444ZM532.1859 499.8342L532.5692 499.6634L533.1279 498.4846L532.7076 498.1205L533.5142 497.4188L533.6809 496.9906L533.2377 496.1333L532.6332 496.4221L531.647 496.176L531.2453 496.3849L530.3831 496.4482L530.3411 497.0239L530.8768 497.3032L530.1958 498.1205L528.9337 498.4088L528.9601 499.173L529.4641 499.3975L529.5049 499.9062L530.304 499.2822L531.5074 499.2789L531.1172 499.6756L531.2602 500.0783L532.1859 499.8342ZM524.3578 495.9562L525.0957 496.0096L525.6369 494.4734L525.1384 493.736L524.61 493.6313L523.5428 493.7534L523.0211 494.0321L522.4231 493.4117L522.1668 494.0097L523.1009 494.6277L523.0189 495.455L524.0827 495.444L524.3578 495.9562ZM532.819 495.8159L532.5692 495.22L532.7213 494.5101L532.3926 494.089L531.1275 493.5418L530.703 493.0577L529.9197 492.9215L529.7911 493.3903L530.1584 493.5917L530.6378 494.2721L532.3071 495.3827L531.8098 495.5291L532.2675 495.9949L532.819 495.8159ZM529.5131 496.0458L530.7522 495.4335L531.1206 494.9128L529.5451 493.3476L528.4433 492.4434L527.8747 492.1322L526.8945 492.5533L526.7751 492.8625L527.4902 493.1554L527.867 492.9357L528.6512 493.192L528.7206 493.9039L528.4502 494.1785L528.8461 494.5752L528.9059 495.6664L529.5131 496.0458ZM523.2492 493.3181L524.3636 493.1127L524.5097 492.6082L524.2164 492.1729L523.1912 492.6875L523.2492 493.3181ZM526.0474 490.8091L525.5646 490.0839L524.0337 491.404L523.7671 492.1322L524.5001 491.8841L524.7953 491.6095L525.8434 491.1416L526.0474 490.8091ZM533.4017 493.4117L533.4017 493.0699L532.6862 491.821L531.2557 490.6555L530.1622 489.9314L529.777 490.1633L529.6287 490.687L529.8159 491.2006L530.9902 491.7061L531.8686 492.2614L532.9914 493.4523L533.4017 493.4117ZM523.6332 491.6135L524.1454 490.925L523.8388 490.686L524.6542 489.8032L524.4711 489.4361L523.3518 489.4717L522.6092 491.7824L522.8072 492.2095L523.3232 492.1119L523.6332 491.6135ZM520.7156 489.6039L521.2805 489.1238L521.5703 487.7854L521.1073 487.4895L520.777 487.6369L520.3949 488.2817L520.4223 488.8818L520.166 489.552L520.7156 489.6039ZM526.5886 489.1371L527.1988 489.7168L527.7221 489.8093L528.3918 490.3331L529.2942 490.4175L529.7591 489.5429L528.4216 488.7892L527.7175 488.7496L527.6824 488.1058L525.9486 487.4162L526.5047 488.5574L526.5886 489.1371ZM532.6332 487.7641L532.163 487.7397L532.0623 487.1244L531.2194 486.866L531.3194 487.4356L531.6069 487.6054L531.9033 488.416L532.5852 488.6438L532.806 488.1475L532.6332 487.7641ZM522.3216 491.101L522.8415 490.4175L522.8647 489.7778L523.5108 488.3621L523.0955 486.504L522.8072 486.6474L522.1939 486.3392L522.0177 486.7745L522.6733 487.4162L522.6218 488.1424L522.3537 488.239L522.8647 489.0445L522.5509 489.5642L521.912 489.2805L521.687 488.7709L520.9399 490.0839L521.057 490.6504L520.6771 491.0074L521.4658 491.7356L521.0676 492.1322L521.7618 492.4577L522.3537 491.6135L522.3216 491.101ZM531.1874 487.8424L530.5894 487.3583L530.7305 486.866L529.9921 486.1358L529.2591 486.1287L529.3583 486.9108L528.6081 486.9677L528.4849 487.4162L530.1965 488.4933L530.8506 488.5401L531.3316 488.2797L531.1874 487.8424ZM528.814 483.9105L529.6336 483.9268L529.6081 483.3125L529.1142 482.1653L528.2751 482.2121L528.2248 482.9911L528.4254 483.6969L528.814 483.9105ZM521.0676 482.7145L520.8228 482.7297L519.954 481.8754L519.2282 482.3951L519.34 483.1416L519.1767 484.7099L518.3392 485.2835L518.24 485.7941L518.356 486.4409L519.3598 486.0982L520.0383 485.2367L519.8106 484.2095L520.2942 484.1648L520.6252 483.5851L521.1371 483.7458L521.2557 482.8508L521.0676 482.7145ZM532.6012 481.8114L531.9296 481.8114L531.4055 482.3728L531.8598 483.0562L532.7339 483.1203L532.9593 482.2975L532.6012 481.8114ZM523.7351 483.1844L523.9326 482.503L524.6344 483.0989L524.6046 483.4834L525.092 483.5708L525.5646 483.1416L524.814 482.089L525.5162 482.1317L525.4528 481.7076L525.02 481.1523L523.9593 480.9998L523.2282 481.2174L522.8072 482.0249L522.1298 482.2304L521.6374 482.6942L522.0219 483.1233L522.5047 483.2962L521.0623 484.2797L522.1668 484.2431L523.176 483.9807L523.7351 483.1844ZM522.5509 480.0966L522.1321 479.8668L521.5795 479.8831L521.076 480.6011L521.2522 480.777L522.4422 480.5584L522.5509 480.0966ZM526.7225 479.9685L526.4044 480.0753L525.7923 479.7824L525.9486 478.8518L524.9891 479.581L525.2782 480.5136L526.6885 481.1422L527.0074 480.6947L526.7225 479.9685ZM528.3285 481.5124L528.782 481.0791L528.3796 479.4437L528.0726 478.8762L527.5417 478.9799L527.9868 481.0333L528.3285 481.5124ZM527.0478 478.3412L526.5886 477.6497L526.9601 476.951L526.7316 476.4496L526.2919 476.3763L526.0943 475.8556L525.5005 475.4742L524.4711 475.1752L524.3072 475.4071L525.3285 476.4902L524.6344 476.6764L524.7991 477.6395L522.4261 477.1574L522.0978 478.085L522.8072 478.2558L522.2896 479.1935L523.0478 479.5027L523.5756 479.5332L524.0226 479.8831L524.7911 479.6664L524.7156 479.0796L525.6344 478.8518L526.0745 478.5447L526.6107 478.9647L527.0974 478.922L527.0478 478.3412ZM522.1668 476.0356L521.8358 476.5482L522.7431 476.9682L524.166 477.2042L524.4711 476.3773L523.9593 476.1139L523.5756 475.5169L523.703 474.9189L523.121 474.4074L522.8647 474.9189L521.6733 475.1823L521.7785 475.8282L522.1668 476.0356ZM521.462 476.0509L521.2969 475.8434L521.4254 474.2934L520.8758 474.9189L520.2282 475.0949L520.5024 475.8739L521.2225 476.2523L521.462 476.0509ZM524.9563 472.5147L524.4147 472.3682L524.2454 472.7292L524.3491 473.2906L524.6588 473.4086L525.187 472.716L524.9563 472.5147ZM520.1073 472.2584L518.5783 472.2594L518.187 471.9105L517.7084 471.879L516.8964 472.2584L517.2805 472.5147L517.9204 473.4605L517.7923 473.7168L517.015 473.6588L516.7683 474.5172L517.2217 475.3532L516.9601 475.6095L518.139 475.7844L518.6744 475.7051L518.5665 474.1511L518.7499 473.8358L518.0497 473.0883L518.4696 473.0364L518.7683 473.4513L519.3911 473.491L519.5261 473.1279L519.9799 472.9418L520.1073 472.2584ZM527.7522 476.5055L527.7046 476.0875L528.1371 475.9105L528.4429 476.5919L528.9174 476.4923L528.9624 475.8576L528.7545 475.3278L528.3895 475.0044L528.4216 474.5314L528.1207 473.8826L527.5436 473.2957L527.4048 472.475L527.0707 471.7793L526.1939 472.0336L525.4834 471.3786L524.9387 471.5617L524.6664 472.1028L525.4078 472.417L526.269 472.6072L526.3392 473.1503L525.8495 473.2906L525.2141 473.9985L525.8152 475.224L526.6801 475.5973L527.1584 476.4211L527.7522 476.5055ZM523.3194 472.0875L523.9105 472.1963L524.655 471.6959L524.7911 471.2342L525.4597 471.1264L525.5123 470.807L524.9563 470.6291L523.7564 470.7277L523.7671 471.2342L523.3194 472.0875ZM520.9078 469.6985L521.7366 469.2896L521.8289 468.832L522.8461 468.8238L523.2225 468.2034L523.0226 467.5668L522.2896 467.9756L520.6195 468.3255L521.7374 467.4407L521.0097 467.3796L520.5474 467.1142L520.0383 467.1233L520.0821 466.4501L519.1001 466.4806L518.7442 466.9189L518.24 466.1002L517.9837 466.5274L517.536 466.5701L518.4322 467.6441L518.864 467.6237L519.5268 468.1322L520.0959 468.2156L519.8197 468.8482L519.433 469.2835L518.7522 469.1879L517.9837 468.5899L518.8884 468.2075L518.028 467.8953L517.5634 468.2258L517.1172 469.5378L516.9685 470.4552L517.2328 470.6718L517.8243 470.2029L518.7572 470.1745L518.9113 470.6108L518.3102 470.9779L518.2786 471.4234L519.1996 471.5352L519.5943 470.8396L520.9078 469.6985ZM517.0886 463.2688L517.6847 462.9342L518.0478 463.3542L517.7671 463.5637L518.1046 464.3255L518.6035 464.7699L518.7641 464.296L519.6214 464.6336L519.3083 463.4905L518.912 463.0867L518.7183 462.5162L517.9582 461.209L517.5936 460.9694L516.5203 460.6292L515.5382 461.5364L515.8384 461.6148L515.7898 462.1815L516.0867 462.7598L515.4139 463.0356L515.502 464.3839L516.1885 464.0396L516.2251 463.6835L517.0886 463.2688ZM516.4025 458.3211L516.2133 458.4643L516.187 459.243L516.673 459.7739L517.2505 459.8533L517.2637 459.4117L516.8977 459.1984L516.9659 458.8142L516.4025 458.3211ZM522.1962 454.5426L521.5509 453.9792L521.3819 454.5406L520.3941 453.9568L519.8037 454.2212L519.1363 455.045L519.3979 455.7366L520.4475 455.5627L520.7267 456.0387L521.6382 456.9652L522.0337 456.9906L522.3155 454.7765L522.1962 454.5426ZM516.0589 456.6743L516.7648 456.7587L516.9601 455.8221L517.6397 455.8221L518.0478 455.1386L518.5947 454.6657L518.121 453.8775L517.5932 453.5602L517.1367 454.2782L517.1538 454.6484L515.9582 455.1173L515.5962 455.4712L515.3361 456.4445L516.0589 456.6743ZM519.2698 453.7656L519.1275 453.6588L518.7648 452.4323L518.4208 451.8953L517.896 451.7122L517.3094 451.8739L516.0909 451.7478L515.5268 451.817L515.221 452.2238L515.221 453.1696L515.6893 453.43L516.192 453.4158L516.409 453.9761L516.9296 454.0382L517.3735 453.2927L518.3358 453.1523L518.5505 454.0728L518.9582 454.4836L519.2904 454.2416L519.2698 453.7656ZM520.2969 453.2073L520.6062 453.2123L520.5505 452.2665L520.1561 451.7061L519.3148 451.2312L518.4002 451.0196L518.5665 451.6176L519.0776 451.9675L518.9723 452.6408L519.1985 453.3202L519.4704 453.5297L520.2969 453.2073ZM519.43 463.221L520.0333 464.3102L521.1958 464.8126L521.1744 464.0478L521.6493 463.3969L521.4662 462.8294L521.0772 462.8579L521.6763 461.8592L520.8758 460.9571L521.2625 460.834L521.1996 460.0651L522.0142 460.2421L522.2255 459.6878L522.6794 459.8088L522.3483 460.2645L522.4231 460.7862L522.7248 461.0537L523.4406 461.2306L523.4437 461.6405L522.3014 461.2622L522.0638 462.2558L522.3994 462.6708L522.3895 463.5434L523.0898 463.5251L522.6412 464.3855L522.2053 464.5421L522.1004 465.0405L522.4021 465.5673L523.4414 464.8981L523.729 465.1035L522.954 465.6405L522.5284 466.2833L523.4593 466.747L523.7206 466.5925L524.4696 466.7125L525.6344 466.0148L525.6801 465.5876L526.1115 465.4941L526.2465 464.9184L525.7419 464.4648L526.3468 464.3499L526.613 463.7041L526.4033 463.2393L526.7202 462.2019L526.4956 461.6039L525.4658 461.3446L525.9486 460.7435L525.6344 459.9319L526.1126 459.3268L526.4612 457.6131L526.4925 456.2462L526.224 455.4356L526.3335 455.0745L525.909 454.0768L526.2049 452.9133L525.6927 451.9197L525.7362 450.1195L525.3197 449.9914L524.8617 450.2609L524.1321 449.5825L523.5726 449.5612L521.4292 450.5721L520.7454 451.2922L520.806 451.7966L521.7133 452.5635L521.417 453.1757L521.835 453.3974L522.5509 452.9133L522.6298 453.2896L521.7133 453.672L523.121 454.8823L522.6344 455.4803L522.4231 456.117L522.2896 458.1328L521.9433 457.5103L521.2599 456.9306L520.2339 456.9977L520.3636 457.4422L519.5322 457.2723L518.8541 456.8838L518.258 456.8777L517.2843 457.0761L516.909 457.7412L517.3221 458.7205L517.7694 459.2922L518.4261 460.5838L518.9067 460.6214L518.5337 461.5612L518.822 462.0738L519.2698 462.3229L519.43 463.221ZM520.4917 449.0506L519.9937 449.7178L519.1367 450.4887L519.2763 451.1081L520.171 451.2983L520.4551 450.8671L520.7202 449.8266L520.4917 449.0506ZM521.0676 449.6934L520.8758 450.2446L521.3987 450.3402L521.9631 450.0738L522.9296 449.3141L522.2438 449.1178L521.0676 449.6934ZM539.6863 521.7746L540.1368 522.2649L540.4679 521.7795L539.6863 521.7746ZM564.3801 517.0527L563.6504 516.935L563.3389 517.2108L564.3564 517.9501L565.1274 517.9537L565.3592 517.6441L565.4046 516.9258L565.2176 516.7292L564.3801 517.0527ZM561.7162 501.6655L560.7515 502.3297L561.3568 502.493L562.0684 502.035L561.7162 501.6655ZM526.6524 497.3698L526.0542 497.9715L526.3522 498.4498L527.2002 498.9386L527.2687 498.2202L526.9669 497.5728L526.6524 497.3698ZM526.1967 494.9454L525.706 495.1942L525.6212 496.1284L526.1418 496.5949L526.4221 496.0091L526.1967 494.9454ZM532.3944 489.3765L531.592 488.6209L530.8552 489.0576L531.1902 489.7366L532.1741 490.0361L532.4884 490.8313L533.1136 491.216L533.4382 490.7757L533.4954 489.9226L533.3018 489.1865L532.8219 488.9208L532.3944 489.3765ZM527.2965 482.8014L527.0599 482.7795L526.9455 483.7405L527.5164 483.9117L527.8826 483.5193L527.2965 482.8014ZM521.5673 469.6739L520.153 470.8558L519.7094 471.4594L519.6805 471.8564L520.8714 472.0294L521.5112 471.4906L521.6402 470.5585L522.3267 469.7665L521.9768 469.5228L521.5673 469.6739ZM526.6687 461.2683L527.9147 460.5147L527.785 460.0651L527.1767 459.2495L526.531 459.0288L526.3152 459.9431L526.56 460.1465L526.6687 461.2683Z" fill="rgb(104,104,104)" fill-opacity="0.6774193548387096" stroke="#666" stroke-width="0.5" class="zr0-cls-0"></path>
<path d="M-5 -5l10 0l0 10l-10 0Z" transform="translate(400 20)" fill="rgb(0,0,0)" fill-opacity="0" stroke="#3c3c41" stroke-width="0" class="zr0-cls-1"></path>
<style ><![CDATA[
.zr0-cls-0:hover {
cursor:pointer;
fill:rgba(255,231,130,0.8);
}
.zr0-cls-1:hover {
pointer-events:none;
}

]]>

</style>
</svg>