<?xml version="1.0" encoding="UTF-8" standalone="no"?>
<svg
   viewBox="0 0 128 160"
   x="0px"
   y="0px"
   version="1.1"
   id="svg10"
   sodipodi:docname="protest.svg"
   inkscape:version="1.4.2 (ebf0e940, 2025-05-08)"
   xmlns:inkscape="http://www.inkscape.org/namespaces/inkscape"
   xmlns:sodipodi="http://sodipodi.sourceforge.net/DTD/sodipodi-0.dtd"
   xmlns="http://www.w3.org/2000/svg"
   xmlns:svg="http://www.w3.org/2000/svg">
  <defs
     id="defs10" />
  <sodipodi:namedview
     id="namedview10"
     pagecolor="#ffffff"
     bordercolor="#000000"
     borderopacity="0.25"
     inkscape:showpageshadow="2"
     inkscape:pageopacity="0.0"
     inkscape:pagecheckerboard="0"
     inkscape:deskcolor="#d1d1d1"
     inkscape:zoom="2.7043268"
     inkscape:cx="84.12445"
     inkscape:cy="108.71467"
     inkscape:window-width="1712"
     inkscape:window-height="955"
     inkscape:window-x="0"
     inkscape:window-y="39"
     inkscape:window-maximized="0"
     inkscape:current-layer="svg10" />
  <g
     id="g9"
     transform="matrix(1.3982214,0,0,1.3415288,-26.533401,-4.8154246)">
    <path
       d="m 64.073,70.06 c -0.734,-1.469 -2.595,-2.407 -3.525,-3.736 a 2.481,2.481 0 0 1 -0.266,-0.567 9.444,9.444 0 0 1 -0.686,1.05 c -0.525,0.643 -0.937,0.972 -1.07,0.881 -0.133,-0.091 0.035,-0.587 0.364,-1.329 0.3,-0.728 0.734,-1.721 1.133,-2.854 0.1,-0.322 0.21,-0.637 0.3,-0.945 1.049,-4.757 2.812,-9.185 3.561,-14.013 -0.763,0 -1.295,-0.237 -1.295,-0.489 0.007,-0.161 0.2,-0.3 0.49,-0.42 a 3.341,3.341 0 0 1 -1.245,-0.609 0.914,0.914 0 0 1 -0.259,-0.258 1.4,1.4 0 0 1 -0.133,-0.238 c -0.07,-0.14 -0.077,-0.245 -0.028,-0.308 0.049,-0.063 0.154,-0.077 0.308,-0.049 a 1.211,1.211 0 0 1 0.266,0.077 1.262,1.262 0 0 1 0.147,0.056 1.292,1.292 0 0 1 0.161,0.028 15.083,15.083 0 0 0 1.672,0.28 13.61,13.61 0 0 0 1.749,0.021 c 0.1,0 0.2,-0.007 0.293,-0.007 a 3.8,3.8 0 0 0 -0.238,-5.268 c -2.322,-1.882 -0.86,0.419 -1.245,1.448 -0.7,1.847 -2.462,1.28 -4.064,0.993 -0.91,2.526 -0.518,5.443 -1.574,8.025 -1.056,2.582 -2.372,5.044 -3.547,7.583 -1.029,2.232 -2.5,4.813 -2.883,7.416 0.014,0.119 0.021,0.238 0.035,0.357 a 3.677,3.677 0 0 0 0.35,1.133 1.185,1.185 0 0 0 0.595,0.511 2.474,2.474 0 0 1 0.328,0.091 c 0.119,0.02 0.259,0.007 0.35,0.02 0.2,0.021 0.322,0.07 0.343,0.147 0.021,0.077 -0.063,0.182 -0.231,0.3 a 1.355,1.355 0 0 1 -0.322,0.175 3.047,3.047 0 0 1 -0.58,0.091 1.832,1.832 0 0 1 -0.827,-0.253 6.093,6.093 0 0 0 0.154,0.616 33.606,33.606 0 0 0 4.275,8.969 c 0.321,0.482 0.636,0.986 0.944,1.5 4.521,-0.036 6.075,-6.969 6.2,-10.425 z"
       id="path1" />
    <path
       d="m 81.8,72.83 a 3.217,3.217 0 0 0 0.455,-0.5 11.717,11.717 0 0 0 0.445,-2.41 7.348,7.348 0 0 1 -1.63,1 c -0.819,0.329 -1.281,0.266 -1.337,0.154 -0.063,-0.147 0.42,-0.384 0.973,-0.811 a 9.4,9.4 0 0 0 0.979,-0.854 c -2.532,0.329 -5.778,0.455 -7.828,-0.951 -0.042,0.2 -0.077,0.392 -0.105,0.594 A 7.529,7.529 0 0 0 76.2,70.99 c 0.8,0.427 1.4,0.672 1.351,0.84 -0.042,0.147 -0.644,0.21 -1.658,-0.063 a 6.475,6.475 0 0 1 -2.26,-1.154 c 0.021,0.125 0.035,0.258 0.056,0.384 0.028,0.154 0.049,0.3 0.07,0.448 0.007,0.063 0.063,0.273 0.091,0.378 a 0.993,0.993 0 0 0 0.266,0.406 6.734,6.734 0 0 0 0.867,0.566 c 0.238,0.154 0.35,0.273 0.322,0.35 -0.028,0.077 -0.189,0.1 -0.462,0.084 a 2.859,2.859 0 0 1 -1.2,-0.322 0.921,0.921 0 0 1 -0.2,-0.133 c -0.007,0.126 -0.014,0.245 -0.028,0.371 a 5.978,5.978 0 0 0 3.631,2.428 3.762,3.762 0 0 0 4.6,-1.784 c -0.608,0.21 -0.986,0.175 -1.021,0.084 C 80.528,73.705 81.122,73.4 81.8,72.83 Z"
       id="path2" />
    <path
       d="m 72.119,66.905 c -0.168,0.014 -0.469,-0.308 -0.63,-0.658 -0.084,-0.189 -0.175,-0.413 -0.294,-0.63 a 2.293,2.293 0 0 0 -0.2,-0.335 0.791,0.791 0 0 1 -0.216,0.07 c -1.742,0.237 -0.343,2.588 0.307,3.036 a 1.077,1.077 0 0 1 0.378,0.462 0.953,0.953 0 0 1 0.392,0.573 c 0.035,0.126 0.112,0.245 0.147,0.364 a 12.805,12.805 0 0 1 0.336,-1.931 c 0.091,-0.35 0.559,-1.091 0.5,-1.42 -0.133,-0.7 -0.566,0.455 -0.72,0.469 z"
       id="path3" />
    <path
       d="m 82.669,67.059 c -0.308,-3 -0.567,-7.423 -4.3,-8.256 -3.659,-0.811 -6.233,1.274 -6.737,4.639 0.441,0.531 0.889,1.056 1.273,1.623 a 8.515,8.515 0 0 1 0.595,1.042 0.806,0.806 0 0 1 0.665,0.371 c 0.8,1.2 2.742,1.5 4.652,1.483 a 1.6,1.6 0 0 1 -0.049,-0.581 4.014,4.014 0 0 1 0.091,-0.51 c 0.147,-0.567 0.252,-0.9 0.413,-0.931 0.161,-0.031 0.356,0.371 0.419,0.98 0.014,0.133 0.035,0.287 0.056,0.447 a 0.508,0.508 0 0 0 0.091,0.252 c 0.007,0.007 -0.007,-0.028 0,-0.028 a 0.267,0.267 0 0 0 0.091,0.007 c 0.028,-0.007 0.028,0 0.084,0 l 0.161,-0.021 c 0.07,-0.007 0.14,-0.014 0.21,-0.028 0.007,-0.014 -0.014,-0.049 -0.014,-0.049 L 80.349,67.45 a 0.371,0.371 0 0 1 0.021,-0.077 c 0.007,-0.076 0.021,-0.153 0.028,-0.23 A 2.246,2.246 0 0 0 80.391,66.66 c -0.007,-0.175 -0.014,-0.343 -0.021,-0.5 a 1.763,1.763 0 0 1 0.091,-0.741 c 0.056,-0.168 0.126,-0.259 0.21,-0.266 0.084,-0.007 0.161,0.084 0.245,0.238 0.084,0.154 0.168,0.405 0.279,0.643 a 4,4 0 0 1 0.168,0.441 2.717,2.717 0 0 1 0.133,0.609 2.3,2.3 0 0 0 0.056,0.692 7.207,7.207 0 0 0 1.141,-0.2 h 0.021 C 82.7,67.4 82.683,67.226 82.669,67.059 Z"
       id="path4" />
    <path
       d="m 62.6,39.425 a 2.182,2.182 0 0 1 2.554,-0.833 6.494,6.494 0 0 1 3.127,2.547 c 7.458,-0.049 14.887,-0.693 22.338,-0.9 -2.8,-9.6 -5.2,-19.322 -7.451,-29.075 C 73.29,11.171 63.552,9.282 53.695,9.094 A 144.942,144.942 0 0 1 37.93,7.824 C 35.32,7.489 32.711,7.153 30.094,6.859 28.478,6.677 26.967,6.059 25.337,6.068 a 170.184,170.184 0 0 0 1.574,19.323 c 0.8,5.408 2.834,10.725 3.141,16.182 10.725,-0.336 21.443,-0.469 32.154,-0.889 A 3.479,3.479 0 0 1 62.6,39.425 Z M 85.621,32.7 c -0.448,-1.6 -0.847,-3.05 -1.182,-4.268 -0.791,-2.385 -1.211,-3.9 -1.064,-3.966 0.147,-0.066 0.854,1.357 1.861,3.728 0.441,1.211 0.91,2.589 1.441,4.268 a 28.992,28.992 0 0 1 1.238,5.422 c 0.007,0.182 0.015,0.357 0.015,0.538 l 0.013,0.5 -0.517,0.063 a 61.618,61.618 0 0 1 -9.655,0.427 c -2.448,-0.07 -3.952,-0.21 -3.952,-0.364 0,-0.154 1.511,-0.315 3.945,-0.462 2.323,-0.14 5.492,-0.266 8.969,-0.7 A 37.044,37.044 0 0 0 85.621,32.7 Z M 70.314,11.539 c 0.972,-0.007 2.12,0 3.4,0.035 0.636,0.014 1.308,0.035 2.008,0.056 A 15.6,15.6 0 0 0 77.792,11.511 21.272,21.272 0 0 1 80,11.4 a 4.228,4.228 0 0 1 1.189,0.154 1.359,1.359 0 0 1 0.315,0.126 l 0.056,0.028 0.028,0.014 0.007,0.007 0.049,0.028 0.007,0.007 0.021,0.014 c 0.049,0.049 0.105,0.1 0.154,0.154 a 1.394,1.394 0 0 1 0.14,0.154 l 0.084,0.147 a 1.588,1.588 0 0 1 0.14,0.294 6.711,6.711 0 0 1 0.336,1.937 c 0.028,0.588 0.021,1.127 0,1.617 -0.091,1.951 -0.336,3.134 -0.49,3.134 -0.175,-0.007 -0.217,-1.211 -0.343,-3.12 -0.035,-0.476 -0.077,-1 -0.147,-1.547 a 6.742,6.742 0 0 0 -0.364,-1.609 c -0.021,-0.07 -0.056,-0.091 -0.077,-0.14 L 81.07,12.73 C 81.057,12.722 81.049,12.722 81.043,12.715 A 0.034,0.034 0 0 1 81.029,12.688 L 80.98,12.667 a 0.23,0.23 0 0 0 -0.154,-0.049 4.41,4.41 0 0 0 -0.84,-0.063 c -0.65,0.007 -1.357,0.07 -2.092,0.133 a 13.89,13.89 0 0 1 -2.224,0.1 c -0.693,-0.042 -1.365,-0.084 -2,-0.125 -1.28,-0.091 -2.428,-0.189 -3.393,-0.287 -1.917,-0.2 -3.106,-0.4 -3.106,-0.56 0,-0.16 1.205,-0.256 3.143,-0.277 z m -42.4,-2.162 c 0.035,0.378 0.07,0.756 0.105,1.12 0.049,0.748 0.1,1.462 0.14,2.141 0.035,1.364 0.028,2.574 -0.007,3.574 -0.056,2.008 -0.119,3.233 -0.273,3.24 -0.154,0.007 -0.35,-1.2 -0.5,-3.212 -0.077,-1 -0.161,-2.2 -0.252,-3.54 C 27.05,12.036 26.98,11.336 26.903,10.6 26.861,10.236 26.812,9.858 26.77,9.473 26.756,9.263 26.749,9.054 26.735,8.844 26.749,8.62 26.756,8.396 26.77,8.172 l 0.028,-0.49 0.518,-0.014 a 8.871,8.871 0 0 1 2.078,0.189 c 0.93,0.182 1.791,0.427 2.6,0.63 a 14.346,14.346 0 0 0 2.358,0.406 c 1.567,0.2 2.959,0.273 4.155,0.454 0.595,0.091 1.134,0.175 1.6,0.252 0.468,0.112 0.874,0.231 1.2,0.329 0.643,0.2 0.986,0.343 0.965,0.427 -0.021,0.084 -0.4,0.084 -1.056,0.021 L 40.027,10.25 c -0.469,-0.021 -1.008,-0.042 -1.6,-0.07 -1.176,-0.07 -2.624,-0.07 -4.184,-0.2 A 13.837,13.837 0 0 1 31.724,9.616 c -0.853,-0.2 -1.7,-0.426 -2.56,-0.594 A 6.97,6.97 0 0 0 27.884,8.861 C 27.9,9.035 27.905,9.2 27.912,9.377 Z m 15.431,30.768 c -1.323,0.112 -2.883,0.3 -4.66,0.336 -0.881,0.014 -1.826,0.1 -2.77,0.049 -0.944,-0.051 -1.931,-0.091 -2.938,-0.14 a 7.62,7.62 0 0 1 -0.826,-0.1 1.626,1.626 0 0 1 -0.531,-0.182 0.9,0.9 0 0 1 -0.336,-0.3 1.186,1.186 0 0 1 -0.147,-0.343 c -0.084,-0.364 -0.084,-0.546 -0.126,-0.784 -0.028,-0.2 -0.084,-0.44 -0.133,-0.671 -0.2,-0.938 -0.357,-1.847 -0.5,-2.722 a 35.14,35.14 0 0 1 -0.426,-4.673 18.363,18.363 0 0 1 0.209,-3.169 c 0.147,-0.721 0.259,-1.12 0.343,-1.12 0.189,0.021 0.035,1.666 0.28,4.247 0.14,1.294 0.343,2.833 0.665,4.533 0.175,0.847 0.356,1.735 0.566,2.652 0.049,0.238 0.1,0.462 0.154,0.734 0.035,0.217 0.063,0.476 0.091,0.616 l 0.112,0.021 c 0.189,0.028 0.5,0.07 0.672,0.084 1.007,0.049 1.986,0.1 2.938,0.161 0.952,0.061 1.84,0 2.7,0.014 1.714,0.028 3.3,-0.07 4.611,-0.077 2.644,-0.063 4.281,-0.035 4.3,0.133 0.019,0.168 -1.625,0.429 -4.248,0.701 z"
       id="path5" />
    <path
       d="m 102.327,115.547 a 16.722,16.722 0 0 0 -1.266,-2.973 c -0.546,-1.077 -1.036,-2.162 -1.511,-3.267 -1.085,-2.512 -2.183,-5.016 -3.323,-7.507 -1.7,-3.736 -3.75,-7.3 -5.66,-10.934 a 25.041,25.041 0 0 0 -0.168,8.213 33.839,33.839 0 0 1 0.441,4.12 c 1.651,2.022 3.043,4.345 5.163,5.912 0.042,0.035 0.077,0.07 0.119,0.1 a 0.938,0.938 0 0 1 0.748,0.979 12.68,12.68 0 0 0 0.847,3.953 c 0.189,0.574 1.119,3.463 1.6,3.477 a 0.616,0.616 0 0 1 0.119,0.014 c 0.007,-0.014 0.014,-0.021 0.021,-0.035 a 3.982,3.982 0 0 0 0.28,-1.651 9.634,9.634 0 0 0 -0.077,-1.5 6.093,6.093 0 0 0 -0.2,-0.952 1.352,1.352 0 0 0 -0.1,-0.272 c -0.021,-0.07 -0.021,-0.126 0.007,-0.154 0.028,-0.028 0.077,-0.035 0.154,-0.021 a 0.574,0.574 0 0 1 0.3,0.168 2.587,2.587 0 0 1 0.643,1.014 5.9,5.9 0 0 1 0.364,1.679 5.521,5.521 0 0 1 0,1.021 3.366,3.366 0 0 1 -0.189,0.854 1,1 0 0 1 0.308,0.518 q 1.807,1.665 1.38,-2.756 z"
       id="path6" />
    <path
       d="m 88.748,87.864 a 20.388,20.388 0 0 0 -1.035,-4.827 c -0.511,-1.49 -0.98,-3.764 -2.2,-4.827 a 16.208,16.208 0 0 0 -2.959,-1.875 4.489,4.489 0 0 1 -4.093,1.609 c -0.189,-0.021 -0.371,-0.049 -0.56,-0.077 0.5,0.175 1.008,0.413 1.491,0.623 0.5,0.217 0.951,0.434 1.392,0.644 0.839,0.384 1.686,0.734 2.343,1.105 1.372,0.692 1.973,1.532 1.854,1.623 -0.126,0.126 -0.832,-0.4 -2.2,-0.868 -0.679,-0.251 -1.491,-0.5 -2.449,-0.867 -0.448,-0.182 -0.923,-0.378 -1.413,-0.581 -0.49,-0.203 -0.959,-0.412 -1.5,-0.6 l -0.168,-0.063 c 3.694,2.378 6.814,3.917 6.674,4.246 -0.063,0.14 -0.994,-0.112 -2.435,-0.706 a 32.638,32.638 0 0 1 -5.373,-2.869 c -1.93,-1.245 -3.819,-2.2 -5.163,-2.966 -1.344,-0.766 -2.14,-1.315 -2.07,-1.462 0.07,-0.147 1,0.14 2.434,0.713 0.392,0.154 0.833,0.336 1.3,0.539 -0.118,-0.1 -0.237,-0.2 -0.342,-0.287 a 7.014,7.014 0 0 1 -1.19,-1.378 c -0.21,-0.357 -0.293,-0.588 -0.231,-0.637 0.126,-0.1 0.679,0.469 1.672,1.176 a 9.452,9.452 0 0 1 -1.567,-2.239 21.878,21.878 0 0 0 -4.834,-1.98 14.345,14.345 0 0 1 -2.4,7.563 c -1.211,1.826 -2.673,3.449 -4.758,3.876 a 20.655,20.655 0 0 1 0.938,2.14 0.77,0.77 0 0 0 0.441,0.084 2.079,2.079 0 0 0 0.531,-0.154 l 0.084,-0.035 0.014,-0.007 0.126,-0.1 0.259,-0.181 a 7.017,7.017 0 0 0 0.965,-1.05 c 0.154,-0.21 0.3,-0.42 0.455,-0.622 0.14,-0.224 0.273,-0.441 0.413,-0.651 0.273,-0.427 0.546,-0.833 0.77,-1.238 0.224,-0.405 0.454,-0.777 0.664,-1.134 0.182,-0.356 0.357,-0.685 0.518,-0.993 0.077,-0.154 0.161,-0.294 0.238,-0.434 0.077,-0.14 0.119,-0.287 0.175,-0.42 0.112,-0.265 0.216,-0.489 0.307,-0.671 0.182,-0.357 0.315,-0.553 0.392,-0.525 0.077,0.028 0.091,0.252 0.049,0.658 -0.028,0.2 -0.063,0.44 -0.112,0.727 a 4.671,4.671 0 0 1 -0.266,0.945 c -0.126,0.349 -0.265,0.734 -0.419,1.14 -0.175,0.4 -0.385,0.805 -0.595,1.238 -0.21,0.433 -0.469,0.868 -0.742,1.316 -0.133,0.223 -0.272,0.447 -0.412,0.678 -0.182,0.273 -0.315,0.448 -0.483,0.686 a 7.134,7.134 0 0 1 -1.2,1.259 l -0.378,0.252 -0.182,0.119 -0.014,0.007 -0.07,0.035 h -0.007 l -0.021,0.007 -0.042,0.014 -0.091,0.035 a 2.378,2.378 0 0 1 -0.385,0.112 2.354,2.354 0 0 1 -0.489,0.07 0.771,0.771 0 0 1 -0.126,-0.014 c 0.077,0.279 0.154,0.559 0.217,0.839 0.084,0.427 0.146,0.861 0.2,1.294 0.273,-0.391 0.525,-0.79 0.8,-1.119 0.546,-0.7 1.084,-1.28 1.525,-1.756 0.441,-0.476 0.8,-0.86 1.07,-1.126 0.27,-0.266 0.448,-0.378 0.518,-0.336 0.07,0.042 0.014,0.259 -0.14,0.6 a 9.054,9.054 0 0 1 -0.79,1.371 27.18,27.18 0 0 0 -2.631,4.225 q -0.115,0.3 -0.21,0.609 a 23.183,23.183 0 0 0 0.5,5.639 c 0.112,0.405 0.21,0.8 0.294,1.21 0.021,-0.378 0.042,-0.756 0.1,-1.189 0.056,-0.539 0.119,-1.113 0.217,-1.714 0.056,-0.308 0.112,-0.609 0.175,-0.91 0.077,-0.273 0.154,-0.546 0.23,-0.811 0.224,-0.595 0.476,-1.05 0.707,-1.546 a 20.947,20.947 0 0 1 1.511,-2.274 c 0.924,-1.21 1.511,-1.98 1.658,-1.889 0.126,0.084 -0.189,0.979 -0.944,2.33 -0.385,0.678 -0.826,1.455 -1.259,2.329 -0.168,0.441 -0.406,0.931 -0.56,1.371 -0.07,0.266 -0.14,0.532 -0.217,0.812 -0.042,0.259 -0.091,0.518 -0.14,0.783 -0.077,0.574 -0.161,1.127 -0.231,1.666 -0.084,0.5 -0.126,1.063 -0.189,1.56 -0.1,1 -0.266,1.91 -0.308,2.658 -0.048,0.518 -0.1,0.965 -0.16,1.336 0.084,1.385 0.091,2.778 0.056,4.17 0.062,-0.392 0.125,-0.791 0.209,-1.2 0.091,-0.679 0.287,-1.316 0.434,-1.945 0.168,-0.623 0.308,-1.225 0.483,-1.791 0.392,-1.12 0.734,-2.141 1.084,-2.953 0.749,-1.6 1.287,-2.567 1.434,-2.5 0.147,0.067 -0.1,1.126 -0.657,2.8 -0.231,0.84 -0.511,1.84 -0.819,2.953 -0.14,0.552 -0.252,1.154 -0.4,1.763 -0.148,0.609 -0.315,1.238 -0.406,1.895 -0.469,2.47 -0.756,4.793 -1.162,6.507 0.021,-0.035 0.035,-0.077 0.056,-0.119 0.2,-0.448 0.392,-0.9 0.6,-1.33 l 0.686,-1.224 c 0.224,-0.4 0.482,-0.755 0.72,-1.126 0.959,-1.441 1.924,-2.645 2.729,-3.652 1.616,-1.994 2.574,-3.281 2.721,-3.183 0.126,0.084 -0.581,1.525 -2.05,3.673 -0.72,1.077 -1.6,2.322 -2.49,3.749 -0.21,0.364 -0.448,0.721 -0.658,1.106 -0.21,0.385 -0.413,0.776 -0.623,1.175 -0.181,0.413 -0.363,0.833 -0.552,1.259 -0.189,0.441 -0.378,0.9 -0.574,1.351 a 15.065,15.065 0 0 1 -0.944,1.972 5.342,5.342 0 0 0 0.874,-0.44 c 0.637,-0.371 1.252,-0.728 1.833,-1.064 1.133,-0.685 2.12,-1.3 2.931,-1.868 0.826,-0.538 1.455,-1.007 1.91,-1.3 0.455,-0.293 0.735,-0.441 0.777,-0.385 0.042,0.056 -0.133,0.287 -0.518,0.686 a 17.1,17.1 0 0 1 -1.728,1.595 30.7,30.7 0 0 1 -2.854,2.127 c -0.406,0.259 -0.826,0.532 -1.259,0.8 0.426,-0.091 0.895,-0.2 1.392,-0.279 a 5.386,5.386 0 0 0 2.336,-0.9 11.923,11.923 0 0 0 3.113,-3.582 c 0.665,-1.07 1.064,-1.784 1.225,-1.721 0.161,0.063 0.028,0.868 -0.483,2.106 a 12.12,12.12 0 0 1 -1.119,2.064 8.1,8.1 0 0 1 -2.071,2.112 5.867,5.867 0 0 1 -1.42,0.707 5.709,5.709 0 0 1 -0.735,0.2 c -0.287,0.049 -0.455,0.063 -0.685,0.091 l -0.175,0.021 c 6.345,0.846 12.739,0.1 19.112,-0.7 -0.405,-0.363 -0.734,-0.727 -1.07,-1 -0.714,-0.539 -1.35,-1.036 -1.875,-1.476 -1.028,-0.889 -1.616,-1.5 -1.525,-1.623 0.091,-0.123 0.861,0.252 2.022,0.972 0.588,0.357 1.287,0.784 2.043,1.287 0.5,0.364 0.937,0.791 1.392,1.155 a 13.942,13.942 0 0 0 -1.217,-4.289 c -0.532,-1.3 -0.8,-2.169 -0.651,-2.232 0.149,-0.063 0.665,0.637 1.4,1.861 a 13.8,13.8 0 0 1 1.127,2.3 10.91,10.91 0 0 1 0.454,1.735 c 0.042,-0.553 0.077,-1.126 0.091,-1.735 a 14.253,14.253 0 0 0 -0.518,-4.365 13.514,13.514 0 0 0 -0.412,-1.33 c -0.1,-0.321 -0.112,-0.524 -0.042,-0.559 0.07,-0.035 0.224,0.084 0.448,0.343 a 4.416,4.416 0 0 1 0.769,1.21 8.754,8.754 0 0 1 0.833,2.826 25.748,25.748 0 0 0 0.923,-6.352 c 0,-0.1 -0.007,-0.2 -0.014,-0.308 a 0.978,0.978 0 0 1 -0.014,-0.427 c -0.056,-1.119 -0.175,-2.224 -0.315,-3.337 -0.671,-0.741 -1.371,-1.539 -2.176,-2.343 -0.258,-0.273 -0.517,-0.546 -0.776,-0.812 a 8.435,8.435 0 0 0 -0.735,-0.692 18.869,18.869 0 0 0 -1.611,-1.17 25.484,25.484 0 0 1 -2.868,-2.05 6.265,6.265 0 0 1 -1.539,-1.9 c -0.252,-0.525 -0.287,-0.833 -0.231,-0.868 0.077,-0.049 0.273,0.217 0.623,0.623 a 8.862,8.862 0 0 0 1.665,1.5 c 0.776,0.552 1.791,1.105 2.931,1.777 a 17.279,17.279 0 0 1 1.756,1.189 8.854,8.854 0 0 1 0.86,0.784 l 0.784,0.8 c 0.371,0.371 0.714,0.763 1.063,1.147 a 23.915,23.915 0 0 1 -0.2,-4.47 c 0.132,-1.897 0.972,-3.718 0.804,-5.654 z m -1.623,5.541 c -0.112,0.119 -0.595,-0.112 -1.3,-0.56 a 25.83,25.83 0 0 1 -2.652,-1.951 13.724,13.724 0 0 1 -2.315,-2.435 c -0.483,-0.707 -0.672,-1.21 -0.553,-1.308 0.119,-0.098 0.56,0.217 1.189,0.769 0.63,0.532 1.49,1.267 2.442,2.071 a 28.445,28.445 0 0 1 2.42,2.211 c 0.58,0.623 0.874,1.077 0.769,1.203 z"
       id="path7" />
    <path
       d="m 70.845,119.1 a 27.857,27.857 0 0 0 6.6,0.9 12.629,12.629 0 0 0 7.584,-2.175 l 1.591,-1.143 -1.944,0.24 a 113.55,113.55 0 0 1 -12.666,1.059 c -1.563,-0.2 -3.136,-0.4 -4.7,-0.566 -1.754,-0.2 -3.517,-0.365 -5.309,-0.412 1.7,0.535 3.431,0.956 5.17,1.335 1.053,0.23 2.109,0.411 3.168,0.579 l -0.021,0.053 z"
       id="path8" />
    <path
       d="m 62.143,117.961 c -0.091,1.224 -0.161,2.455 -0.224,3.687 3.687,0.608 7.639,0 11.347,0 4.387,0 9.018,0.468 13.383,-0.133 a 21.866,21.866 0 0 0 -0.07,-2.876 c -6.66,5.478 -17.049,2.001 -24.436,-0.678 z"
       id="path9" />
  </g>
</svg>
